<?xml version="1.0" standalone="no"?>
<!DOCTYPE svg PUBLIC "-//W3C//DTD SVG 20010904//EN"
 "http://www.w3.org/TR/2001/REC-SVG-20010904/DTD/svg10.dtd">
<svg version="1.0" xmlns="http://www.w3.org/2000/svg"
 width="592.000000pt" height="516.000000pt" viewBox="0 0 592.000000 516.000000"
 preserveAspectRatio="xMidYMid meet">

<g transform="translate(0.000000,516.000000) scale(0.100000,-0.100000)"
fill="#000000" stroke="none">
<path d="M0 5031 l0 -130 28 -3 c36 -4 294 10 460 26 l134 12 10 -25 c6 -17 5
-32 -2 -46 -7 -12 -10 -35 -8 -51 2 -19 -4 -36 -19 -53 -13 -13 -20 -27 -17
-32 6 -10 -32 -7 -42 3 -3 4 -12 4 -20 1 -8 -3 -14 1 -14 11 0 20 -10 20 -24
0 -10 -13 -19 -14 -66 -4 -55 12 -74 13 -120 10 -21 -2 -141 7 -174 13 -6 1
-14 10 -18 20 -11 25 -28 21 -28 -7 0 -14 -4 -28 -10 -31 -10 -6 -14 7 -11 33
3 19 -27 26 -44 9 -10 -10 -15 -35 -15 -71 l0 -56 63 -2 c34 0 69 0 77 1 8 0
123 1 256 1 267 0 332 -8 368 -47 28 -30 49 -116 32 -133 -20 -20 -46 -10 -68
29 -23 40 -48 51 -120 51 -29 0 -43 24 -32 54 8 20 24 11 24 -13 0 -14 11 -20
43 -25 23 -4 52 -13 64 -21 12 -8 24 -11 28 -6 3 5 1 12 -5 16 -5 3 -10 11
-10 17 0 7 6 6 15 -2 12 -10 15 -10 15 0 0 18 -42 49 -67 50 -12 0 -24 4 -28
10 -5 8 -111 6 -235 -5 -19 -2 -50 -3 -68 -4 -32 -1 -33 -2 -26 -36 l6 -35
-85 0 -85 0 -6 35 -7 35 -74 0 c-60 0 -75 -3 -75 -15 0 -8 8 -15 18 -15 16 -1
16 -1 -1 -14 -9 -7 -17 -21 -17 -30 0 -13 11 -16 55 -16 l55 0 0 -54 c0 -66 7
-86 29 -85 10 0 11 2 4 6 -15 6 -17 43 -3 43 6 0 10 5 10 11 0 5 -5 7 -10 4
-6 -3 -10 1 -10 10 0 13 6 16 25 11 22 -6 25 -3 25 19 0 22 -3 25 -24 19 -13
-3 -27 -1 -30 5 -5 7 8 11 37 11 39 0 44 -2 43 -22 -1 -18 4 -22 19 -19 11 2
48 6 83 8 49 4 62 8 58 19 -4 11 9 14 67 14 48 0 67 -3 57 -10 -22 -14 12 -24
55 -17 19 3 35 2 35 -4 0 -5 11 -9 25 -9 16 0 25 -6 25 -15 0 -8 -4 -15 -9
-15 -6 0 -8 -10 -6 -21 6 -32 -16 -54 -55 -56 -40 -2 -123 -20 -100 -22 8 -1
27 -7 42 -15 17 -9 29 -11 36 -4 6 6 16 7 24 2 7 -5 20 -7 29 -6 9 2 21 -3 27
-10 8 -10 3 -13 -21 -14 -42 -2 -111 -22 -80 -23 36 -2 37 -21 1 -21 -52 -1
-200 -10 -229 -15 -14 -2 -41 0 -61 4 -19 5 -56 5 -82 1 -25 -4 -48 -5 -50 -2
-8 8 -96 8 -96 0 0 -4 5 -8 12 -8 9 0 9 -3 0 -12 -15 -15 -16 -42 -2 -33 12 7
515 13 543 7 9 -2 17 -13 17 -23 0 -11 4 -19 9 -19 5 0 7 8 4 19 -6 23 16 39
27 20 5 -7 4 -21 -1 -31 -5 -10 -6 -18 -1 -18 13 0 52 -40 52 -53 0 -7 -7 -22
-16 -33 -14 -17 -15 -17 -10 -1 4 11 2 16 -5 12 -6 -4 -19 1 -31 11 -20 18
-20 18 -42 -9 -12 -15 -27 -27 -34 -27 -7 0 -12 -4 -12 -10 0 -5 11 -10 25
-10 16 0 25 6 25 15 0 16 16 20 24 6 9 -14 -22 -34 -54 -35 -17 -1 -30 -4 -30
-7 0 -3 -17 -6 -37 -7 -21 -1 -47 -3 -58 -3 -11 -1 -46 1 -78 3 -32 2 -60 1
-63 -4 -9 -14 -34 -9 -34 6 0 8 -5 18 -11 22 -8 4 -9 0 -4 -15 7 -24 -10 -29
-19 -5 -3 8 -11 12 -16 9 -8 -5 -7 -11 1 -21 9 -12 5 -14 -30 -14 -46 0 -56
16 -13 23 26 4 26 4 4 12 -12 4 -25 18 -28 31 -3 13 -12 24 -20 24 -18 0 -18
-10 2 -38 8 -12 10 -22 5 -22 -6 0 -10 -6 -8 -12 1 -9 -12 -12 -45 -11 l-47 3
1 -35 1 -35 121 0 c67 0 150 0 186 -1 l65 -1 -3 -39 -4 -39 -84 0 -84 0 0 35
0 35 -50 0 c-27 0 -72 -5 -100 -11 -50 -11 -50 -11 -50 -51 l0 -39 188 1 c216
2 212 2 192 -9 -18 -11 -167 -25 -230 -23 -127 6 -150 1 -150 -32 0 -45 10
-56 50 -56 22 0 41 4 44 8 2 4 23 9 45 10 l41 3 0 -55 c0 -30 3 -61 6 -70 7
-17 44 -22 44 -6 0 5 7 7 15 4 11 -5 13 -2 9 11 -4 10 -14 15 -26 12 -23 -6
-35 17 -19 37 6 7 8 16 4 20 -4 4 1 4 11 0 13 -5 17 -3 14 7 -2 7 -15 16 -29
19 -24 6 -24 6 -2 14 12 4 37 4 55 1 18 -4 46 -2 61 4 17 7 27 7 27 1 0 -6 -4
-10 -10 -10 -5 0 -10 -8 -10 -17 0 -12 3 -14 11 -6 8 8 20 8 40 1 23 -8 29
-16 29 -39 0 -28 -1 -29 -42 -25 -48 4 -71 -2 -62 -15 3 -5 9 -7 14 -4 5 3 19
1 31 -5 17 -9 20 -18 15 -41 -5 -25 -2 -29 17 -29 12 0 33 -3 47 -7 24 -7 23
-8 -10 -14 -20 -4 21 -7 93 -8 104 -1 135 -5 168 -20 21 -11 37 -15 33 -10 -3
5 7 14 22 20 22 8 39 6 74 -6 25 -9 63 -18 85 -21 78 -8 110 -17 138 -40 16
-13 41 -24 56 -24 15 0 32 -5 39 -12 9 -9 15 -8 27 8 14 19 14 18 15 -3 0 -14
-6 -23 -15 -23 -8 0 -15 -9 -15 -21 0 -11 -4 -17 -10 -14 -5 3 -10 15 -10 26
0 25 -17 25 -25 -1 -3 -11 -10 -20 -15 -20 -6 0 -6 10 0 25 7 19 6 25 -4 25
-15 0 -29 -27 -21 -40 3 -4 -12 -11 -33 -14 -59 -11 -72 -16 -72 -31 0 -8 -10
-19 -21 -26 -21 -11 -489 -35 -793 -41 -93 -2 -131 -7 -134 -15 -2 -8 6 -13
23 -13 34 0 31 -33 -3 -38 -15 -2 -22 -9 -20 -20 3 -15 25 -18 173 -22 l170
-6 -141 -2 c-78 -1 -157 -5 -175 -9 -33 -7 -33 -7 -9 -14 22 -6 23 -7 4 -8
-21 -1 -22 -5 -23 -148 l-1 -146 113 6 c61 4 185 7 275 7 107 0 161 3 157 10
-3 6 -17 7 -30 4 -12 -3 -26 -1 -29 5 -5 7 7 11 33 11 31 0 41 -4 41 -16 0
-12 7 -14 28 -10 40 9 186 11 199 3 6 -4 25 0 42 9 19 9 39 13 49 8 9 -4 22
-6 29 -5 6 1 14 -3 18 -9 6 -9 -16 -15 -39 -11 -22 4 -69 -13 -86 -32 l-20
-21 0 22 c0 20 -4 21 -82 17 -46 -2 -221 -7 -390 -11 -240 -5 -308 -10 -308
-20 0 -7 6 -15 12 -17 10 -4 10 -6 1 -6 -8 -1 -13 -14 -13 -33 0 -19 4 -28 8
-21 9 14 179 26 187 12 4 -5 -7 -9 -23 -9 -16 0 -32 -3 -35 -7 -9 -8 -50 -15
-99 -15 -40 -1 -45 -7 -26 -26 9 -9 9 -12 0 -12 -18 0 -17 -1176 1 -1183 9 -4
9 -6 0 -6 -7 -1 -13 -11 -13 -23 0 -21 1 -21 158 -15 86 4 221 7 300 7 106 0
141 3 136 12 -5 7 -3 8 6 3 13 -8 103 -7 259 4 l95 6 38 75 c21 41 38 76 38
77 0 4 -75 -5 -104 -13 -22 -5 -28 -4 -24 7 3 9 22 14 54 15 36 1 48 5 46 15
-2 8 -8 16 -14 18 -6 2 -19 12 -28 21 -10 10 -22 15 -26 12 -4 -4 -4 -1 0 6 4
7 12 9 18 6 6 -4 14 -1 18 5 5 9 11 9 23 -3 8 -9 21 -16 27 -16 8 0 8 -6 -1
-21 -9 -17 -8 -25 5 -37 15 -15 16 -14 16 6 0 12 5 22 10 22 18 0 11 -28 -20
-80 -16 -28 -33 -62 -36 -75 -3 -14 -10 -25 -14 -25 -5 0 -11 -13 -15 -30 -7
-34 -20 -44 -55 -46 -110 -5 -421 -15 -643 -20 l-267 -6 0 -253 c0 -193 3
-255 12 -258 10 -4 10 -6 1 -6 -7 -1 -13 -8 -13 -17 0 -15 16 -16 163 -10 173
7 414 23 461 31 26 5 28 3 22 -21 -4 -15 -14 -33 -21 -41 -8 -8 -15 -21 -15
-29 0 -8 -4 -14 -10 -14 -14 0 -13 7 6 35 19 29 12 45 -16 38 -11 -3 -18 -8
-16 -12 2 -3 -26 -7 -62 -9 -37 -2 -103 -7 -147 -12 -44 -5 -144 -12 -222 -16
l-143 -7 0 -378 0 -379 514 0 515 0 4 28 4 27 2 -27 1 -28 114 0 c112 0 114 0
131 27 10 15 19 44 20 65 2 41 33 118 47 118 4 0 8 11 8 24 0 14 5 28 10 31 6
3 10 17 10 30 0 13 5 27 10 30 6 3 19 25 30 49 10 23 26 49 35 56 8 7 15 23
15 36 0 12 6 29 14 37 15 15 68 152 107 277 12 41 31 93 40 115 10 22 21 67
25 100 l7 60 12 -64 c7 -35 13 -107 14 -160 1 -53 6 -123 12 -156 5 -33 11
-74 13 -91 1 -16 6 -36 10 -43 12 -18 25 -253 17 -292 -4 -19 -4 -55 -1 -81 4
-26 3 -54 -2 -62 -5 -8 -4 -17 1 -20 4 -3 7 -24 6 -46 l-2 -40 104 0 c70 0
102 3 98 10 -4 6 -1 17 5 25 7 8 9 26 6 39 -3 14 -2 28 4 31 5 3 10 25 10 48
1 79 28 238 44 256 9 10 16 27 16 39 0 24 44 49 100 58 41 7 116 -25 127 -52
3 -9 -4 -37 -17 -64 -24 -51 -19 -92 6 -45 8 15 12 31 9 35 -3 5 -2 10 3 12 4
1 21 21 37 42 22 29 25 38 13 33 -22 -8 -22 -8 -3 36 22 54 19 106 -7 135 -20
21 -21 25 -7 32 13 8 16 29 17 115 0 59 3 109 6 112 3 3 12 3 21 -1 14 -5 16
-18 10 -93 -3 -49 -8 -162 -10 -253 -5 -156 -6 -166 -31 -201 l-26 -38 12
-108 c9 -77 10 -122 3 -155 l-11 -48 112 0 111 0 24 50 c23 50 48 69 38 29 -3
-11 -1 -34 5 -50 l10 -29 279 0 279 0 0 31 c0 16 4 28 9 25 5 -3 11 1 15 9 9
24 26 17 26 -10 0 -50 21 -54 316 -54 l271 -1 7 52 c3 29 6 98 6 153 0 55 4
127 9 160 5 33 13 102 16 152 4 51 11 93 15 93 5 0 16 -44 26 -97 9 -54 25
-122 36 -152 22 -67 24 -129 3 -137 -16 -6 -35 -65 -33 -99 1 -11 -2 -44 -6
-72 l-8 -53 161 0 161 0 -6 27 c-4 16 -11 34 -17 41 -7 9 -6 20 1 35 12 22 21
58 48 175 8 34 25 101 39 148 25 87 32 182 19 276 l-6 45 -69 7 c-38 3 -94 17
-128 32 -51 22 -61 31 -61 51 0 20 4 24 18 18 41 -18 130 -47 167 -54 22 -5
47 -10 55 -12 11 -3 14 4 12 31 -5 66 -13 93 -25 81 -6 -6 -20 -11 -31 -12
-15 -1 -11 -4 12 -11 24 -8 32 -17 32 -34 0 -18 -6 -24 -22 -24 -32 0 -173 45
-203 64 -34 22 -34 50 0 44 14 -3 25 -1 25 3 0 5 -3 9 -7 9 -5 0 -16 7 -26 14
-14 11 -19 32 -23 94 -5 77 -4 80 16 75 12 -3 23 -18 28 -36 6 -23 14 -31 35
-34 22 -3 27 0 27 17 0 21 8 24 34 14 9 -4 16 -18 16 -34 0 -23 5 -28 30 -32
36 -5 40 -2 40 29 0 13 4 21 10 18 5 -3 8 -27 6 -53 -4 -47 -4 -47 -38 -44
-18 2 -64 15 -102 28 -38 13 -72 21 -75 18 -3 -4 0 -9 7 -11 7 -3 34 -21 59
-40 40 -31 51 -34 87 -29 22 3 49 6 59 7 16 0 17 12 11 174 -6 156 -5 175 10
191 16 15 16 18 2 32 -13 14 -25 11 -108 -26 -140 -61 -343 -107 -550 -125
-124 -10 -162 -8 -146 9 3 3 63 9 133 14 183 13 450 69 555 116 79 36 85 39
89 59 2 15 -2 17 -29 12 l-31 -7 37 35 c36 34 36 35 32 102 -4 53 -1 76 13
105 12 23 15 39 9 43 -6 3 -10 -1 -10 -9 0 -9 -4 -16 -10 -16 -5 0 -10 8 -10
18 0 9 -11 37 -24 62 -14 28 -26 71 -30 115 -3 39 -12 91 -20 117 l-15 47 37
12 c20 6 52 20 70 31 24 15 44 19 80 15 26 -2 80 3 120 11 40 8 73 13 75 11 1
-2 -1 -132 -6 -289 -8 -265 -11 -394 -8 -447 1 -11 17 -40 36 -63 23 -27 35
-52 35 -71 0 -38 28 -168 40 -191 6 -10 10 -26 10 -35 0 -16 34 -164 61 -267
5 -21 26 -63 45 -92 22 -33 33 -58 28 -66 -5 -7 -23 -32 -41 -56 -18 -24 -33
-50 -33 -58 0 -8 -13 -17 -30 -20 -37 -8 -60 -32 -41 -43 9 -6 3 -16 -21 -35
-18 -15 -43 -36 -55 -47 -13 -12 -24 -16 -28 -9 -7 11 -57 13 -104 4 -39 -8
-91 -58 -91 -86 0 -12 11 -36 25 -54 20 -26 22 -35 12 -41 -22 -13 -27 -51
-11 -89 l14 -34 560 0 560 0 0 35 c0 19 -4 43 -9 53 -18 34 -35 105 -34 141 0
20 6 96 13 170 11 117 11 149 -5 265 -9 72 -30 196 -47 276 -16 80 -33 179
-38 220 -10 88 -33 164 -60 201 -17 24 -19 46 -21 213 -1 141 2 190 12 202 10
12 10 20 1 34 -9 15 -6 22 19 42 23 17 33 35 40 71 5 27 15 63 23 80 42 94 56
132 56 156 0 18 13 40 40 66 22 22 51 59 65 82 14 24 37 54 51 68 57 57 74
145 59 295 -7 69 -9 458 -3 605 5 107 20 163 50 181 7 4 8 2 4 -5 -4 -6 0 -18
8 -27 15 -14 16 -14 16 3 0 14 2 15 9 4 5 -8 14 -10 21 -6 21 13 130 7 173
-10 15 -6 17 -1 17 44 0 28 -4 52 -10 52 -34 4 -86 4 -167 -1 -87 -5 -92 -4
-87 13 3 10 3 45 -1 78 -5 44 -16 73 -41 110 -19 27 -33 53 -30 58 6 9 -31 71
-42 71 -5 0 -20 20 -33 44 -13 25 -27 42 -33 39 -5 -3 -6 -1 -2 5 7 12 -43
112 -56 112 -5 0 -5 -8 0 -17 5 -10 12 -43 16 -73 6 -52 5 -53 -9 -30 -8 14
-14 35 -15 48 0 31 -43 112 -75 141 -14 13 -25 19 -25 14 0 -5 -7 -18 -15 -29
-14 -18 -15 -16 -9 20 4 23 3 37 -3 33 -5 -3 -10 9 -11 26 -4 62 -15 112 -26
120 -8 5 -7 10 3 16 8 5 11 16 8 24 -3 8 0 20 6 26 9 9 8 14 -3 21 -12 8 -16
2 -18 -30 -3 -37 -5 -40 -33 -40 -26 0 -29 -3 -29 -34 0 -48 -9 -66 -37 -77
-14 -5 -27 -18 -30 -29 -3 -10 -18 -25 -34 -32 -16 -7 -29 -18 -29 -24 0 -6
-8 -18 -17 -25 -16 -13 -17 -12 -5 3 8 9 12 25 10 35 -4 14 -7 12 -19 -12 -7
-16 -18 -33 -22 -36 -5 -4 -4 -10 2 -13 6 -4 11 -11 11 -17 0 -19 -73 -89 -93
-89 -11 0 -18 -3 -14 -6 3 -4 -11 -25 -33 -47 -29 -31 -42 -38 -52 -30 -7 5
-34 16 -60 23 -28 7 -57 24 -72 41 -32 36 -39 36 -55 2 -7 -16 -19 -41 -27
-58 -19 -42 -62 -203 -83 -308 -18 -95 -34 -117 -70 -97 -11 5 -30 10 -43 10
-13 0 -29 5 -36 12 -6 6 -15 8 -19 4 -4 -4 -1 -11 6 -15 7 -5 11 -14 7 -20 -8
-12 -244 -12 -252 1 -9 14 -47 9 -41 -6 4 -10 -18 -15 -107 -20 -113 -7 -146
-3 -146 16 0 6 -7 16 -15 22 -11 8 -17 38 -21 113 -4 96 -8 110 -50 200 -25
54 -49 105 -54 114 -5 10 -4 21 2 27 7 7 7 19 0 39 -6 15 -11 22 -11 16 -2
-29 -21 -9 -51 52 -17 36 -36 67 -41 70 -5 4 -9 14 -9 23 0 10 -11 38 -25 64
-14 27 -25 50 -25 53 0 15 -73 155 -81 155 -5 0 -9 5 -9 11 0 6 -7 27 -16 47
-86 192 -94 213 -95 256 -2 33 -3 35 -6 12 -3 -18 -8 -25 -12 -17 -4 6 -2 38
5 70 6 33 9 80 7 105 l-6 46 44 2 c43 1 43 1 7 5 -31 4 -38 9 -43 33 -4 16 -4
34 0 40 10 16 -4 50 -21 50 -11 0 -14 -21 -14 -110 0 -95 -2 -110 -16 -110
-14 0 -16 13 -12 104 3 57 9 109 13 116 6 9 3 9 -14 1 -12 -7 -56 -11 -101
-10 -44 2 -81 1 -83 -2 -3 -2 0 -92 5 -199 8 -154 7 -207 -3 -250 -8 -30 -12
-59 -11 -64 1 -4 -3 -14 -9 -22 -6 -8 -8 -14 -5 -14 4 0 2 -8 -3 -18 -5 -10
-6 -24 -2 -31 5 -7 0 -45 -11 -85 -25 -92 -25 -98 -10 -103 7 -3 12 3 12 14 0
10 7 27 15 37 8 11 15 35 15 53 0 18 4 33 10 33 5 0 9 -17 8 -38 0 -22 2 -44
7 -51 4 -7 9 -113 10 -235 3 -199 6 -231 29 -326 15 -57 29 -129 32 -160 3
-30 10 -69 15 -86 5 -17 12 -67 15 -110 2 -44 6 -108 9 -144 10 -152 15 -227
15 -252 0 -23 8 -31 47 -48 63 -28 143 -90 143 -111 0 -10 8 -20 18 -22 10 -3
7 -5 -10 -6 -37 -1 -62 -49 -54 -103 5 -30 3 -38 -9 -38 -8 0 -15 -4 -15 -10
0 -5 -5 -10 -11 -10 -7 0 -9 10 -4 28 7 26 9 40 19 97 3 14 0 25 -5 25 -5 0
-9 -14 -9 -32 0 -36 -16 -28 -22 11 -1 14 -9 26 -17 29 -10 3 -12 -7 -7 -49 3
-30 8 -69 12 -86 7 -33 -11 -93 -27 -93 -5 0 -10 11 -10 25 -1 14 -2 28 -3 33
-1 4 -6 35 -10 69 -4 34 -14 67 -22 74 -11 9 -14 8 -14 -7 -1 -19 -22 -54 -33
-54 -6 0 -11 25 -23 99 -5 38 -8 42 -17 25 -6 -10 -10 -39 -8 -63 2 -29 -1
-41 -8 -37 -14 9 -14 93 -1 101 5 3 10 15 10 27 0 11 9 34 21 51 21 32 14 25
-71 -71 -11 -12 -20 -28 -20 -35 0 -6 -7 -2 -14 9 -8 12 -16 47 -18 80 -4 53
-5 56 -12 27 -5 -18 -12 -30 -17 -27 -16 9 -10 -13 16 -57 14 -24 25 -58 25
-76 0 -17 5 -35 10 -38 13 -8 13 -45 -1 -45 -5 0 -7 -4 -4 -10 3 -5 0 -10 -8
-10 -15 0 -37 40 -37 67 0 10 -6 13 -16 9 -12 -5 -15 -2 -10 10 4 9 1 23 -6
32 -10 12 -10 16 -1 19 10 4 10 10 2 25 -6 11 -17 17 -25 14 -12 -5 -12 -2 -3
15 9 17 8 20 -3 14 -7 -3 -2 3 12 15 14 12 27 32 29 44 7 44 4 112 -6 144 -7
18 -8 32 -2 32 5 0 9 -11 9 -24 0 -14 5 -28 10 -31 6 -4 10 7 10 27 0 18 5 50
11 71 16 58 4 93 -34 102 -22 5 -27 9 -14 12 39 10 6 44 -37 37 -24 -4 -28 -3
-16 5 8 6 23 11 33 11 21 0 18 24 -4 28 -20 3 -79 -35 -79 -52 0 -8 7 -22 16
-30 14 -15 12 -18 -28 -36 -55 -26 -83 -43 -105 -62 -10 -9 -35 -21 -56 -28
-31 -10 -38 -16 -34 -32 5 -17 2 -19 -21 -13 -15 4 -27 7 -28 8 0 1 -11 19
-24 41 -19 32 -21 42 -11 58 7 11 8 17 2 14 -5 -4 -12 -2 -15 3 -10 16 11 22
38 11 26 -9 26 -9 26 43 1 30 7 60 15 71 8 11 15 31 15 45 1 19 13 35 45 59
48 35 71 39 100 18 17 -12 23 -12 47 0 15 8 34 14 42 14 23 0 29 18 12 36 -9
8 -16 22 -16 30 0 21 -36 57 -49 49 -6 -3 -11 -2 -11 4 0 6 -7 8 -16 4 -10 -4
-22 1 -30 11 -14 20 -61 18 -56 -2 1 -9 -6 -11 -25 -6 -22 4 -25 3 -13 -5 13
-9 12 -11 -5 -11 -11 0 -31 -3 -44 -7 -23 -6 -24 -5 -18 38 4 24 9 55 12 69 3
14 3 19 -1 13 -3 -7 -11 -13 -17 -13 -17 -1 -80 -59 -106 -97 -25 -36 -41 -42
-41 -15 1 14 44 55 95 90 16 10 56 82 46 82 -4 0 -13 -11 -20 -24 -15 -27
-104 -96 -125 -96 -8 0 -17 6 -19 13 -3 6 -6 2 -6 -10 -3 -68 -41 -164 -41
-101 l0 21 -20 -23 c-13 -15 -20 -18 -21 -9 0 8 -4 4 -10 -9 -6 -17 -14 -22
-28 -17 -30 9 -61 -15 -61 -47 0 -24 -4 -28 -27 -28 -35 0 -55 13 -52 31 3 15
-18 60 -33 70 -17 11 -86 -29 -92 -53 -3 -13 -2 22 1 77 7 105 8 160 4 223 -2
34 -4 32 -18 -28 -9 -36 -16 -90 -17 -122 -1 -62 -15 -92 -17 -37 -3 78 -6 90
-23 107 -18 16 -18 15 -11 -23 9 -45 10 -55 7 -142 -2 -49 -5 -62 -19 -65 -20
-5 -116 39 -122 55 -10 27 -52 57 -78 56 -26 -2 -26 -2 -4 -6 26 -5 51 -25 51
-41 0 -5 -19 -7 -42 -5 -25 3 -61 -2 -85 -10 -36 -12 -43 -12 -43 -1 0 21 -19
17 -39 -8 -14 -16 -30 -22 -71 -24 -28 -1 -57 -7 -63 -13 -6 -6 -23 -11 -37
-11 -14 0 -45 -14 -67 -30 -23 -17 -44 -27 -47 -22 -3 5 6 15 19 22 29 16 33
30 7 23 -23 -6 -35 19 -52 110 -8 37 -17 67 -22 67 -4 0 -8 29 -8 64 l0 64 42
7 c50 9 31 25 -22 18 l-35 -5 1 -101 c1 -56 -1 -131 -5 -167 -6 -61 -7 -58
-15 70 -25 379 -33 553 -30 621 2 58 0 68 -16 72 -10 3 -20 15 -22 28 -2 17
-9 24 -25 24 -40 0 -37 -19 -47 335 -3 129 -9 277 -12 329 -3 58 -2 91 4 87 5
-3 12 -20 16 -38 4 -28 21 -627 18 -680 0 -13 7 -18 24 -18 18 0 24 6 25 23 1
12 2 36 2 52 3 49 -13 364 -19 383 -3 9 8 2 25 -16 l31 -32 1 27 c1 16 3 57 5
93 1 35 8 66 13 68 18 6 13 19 -9 25 -27 7 -26 24 1 23 12 -1 24 5 26 12 3 8
-1 10 -11 6 -12 -5 -15 -2 -10 11 4 10 -2 28 -15 45 -23 32 -26 40 -12 40 5 0
12 -9 16 -19 3 -10 15 -21 26 -24 17 -5 20 -2 16 14 -8 29 15 18 24 -12 4 -13
10 -36 13 -51 5 -20 13 -28 27 -28 19 0 21 4 16 30 -4 17 -4 30 -1 30 11 0 49
-54 46 -65 -2 -5 6 -1 17 10 17 14 24 16 33 7 17 -17 31 -15 25 3 -4 8 -3 17
2 19 12 8 51 -23 51 -40 0 -8 5 -14 10 -14 6 0 10 7 10 15 0 8 -4 15 -10 15
-5 0 -10 5 -10 11 0 7 -8 17 -17 24 -15 11 -15 15 -3 30 12 14 12 18 -1 26
-20 12 -26 11 -33 -6 -3 -8 -12 -12 -21 -9 -10 4 -15 0 -15 -12 0 -15 -2 -16
-12 -5 -10 11 -10 14 0 18 6 3 12 11 12 19 0 8 4 14 10 14 5 0 7 7 3 16 -5 13
-2 15 17 9 19 -6 22 -4 17 9 -6 14 37 15 448 13 284 -1 456 -6 457 -12 2 -5
-17 -17 -42 -26 -30 -12 -45 -23 -43 -34 1 -13 -5 -15 -25 -11 -20 5 -23 4
-12 -3 13 -9 13 -13 -1 -38 -17 -29 -19 -106 -4 -153 4 -14 21 -42 37 -62 25
-31 27 -39 14 -44 -14 -5 -14 -8 1 -30 13 -20 14 -27 3 -37 -10 -10 -12 -8 -7
6 5 14 3 18 -10 15 -29 -5 -26 -36 6 -74 17 -19 31 -41 31 -49 0 -8 5 -15 10
-15 6 0 10 -7 10 -15 0 -17 -27 -20 -32 -4 -4 13 -61 -12 -74 -32 -4 -7 -3 -9
3 -6 7 4 12 -13 15 -46 4 -49 75 -245 106 -294 9 -15 24 -23 43 -23 26 0 28
-3 31 -46 3 -43 5 -47 30 -50 20 -2 25 1 21 12 -10 27 6 14 21 -18 20 -40 13
-47 -26 -25 l-31 18 6 -92 c4 -51 9 -94 11 -96 9 -9 36 11 36 28 0 12 7 19 20
19 10 0 23 6 27 13 4 8 18 16 30 19 28 7 102 -10 124 -28 8 -8 21 -14 27 -14
18 0 54 -53 49 -72 -3 -10 0 -18 8 -18 13 0 30 -74 20 -91 -4 -5 -1 -9 5 -9
20 0 22 29 5 112 -21 100 -41 154 -62 162 -12 5 -13 9 -3 21 10 13 10 21 0 43
-19 41 -40 114 -40 140 0 12 6 25 14 28 11 4 14 18 10 57 -8 80 -25 147 -36
144 -6 -1 -12 8 -13 21 -1 14 3 21 10 18 13 -5 30 67 20 84 -3 4 2 10 10 14 8
3 15 10 15 17 0 6 -7 9 -15 5 -9 -3 -15 0 -15 8 0 8 -3 21 -6 29 -4 12 0 14
15 10 26 -7 30 22 4 31 -14 6 -14 8 3 21 13 10 15 14 5 15 -11 0 -9 5 5 21 17
19 17 21 2 30 -13 7 -16 20 -13 52 5 55 -4 90 -21 83 -30 -11 -21 12 10 27 37
17 46 14 46 -15 0 -10 5 -18 10 -18 6 0 10 13 10 30 0 16 5 40 11 54 10 20 7
33 -17 82 -26 51 -35 60 -73 74 -25 8 -46 21 -49 28 -3 11 39 13 234 10 132
-1 245 -7 253 -12 16 -11 123 -8 131 3 6 9 22 8 38 -2 6 -5 12 -4 12 1 0 6 33
9 76 8 42 0 78 3 81 7 3 5 -46 6 -109 3 -142 -6 -139 -6 -460 0 -148 3 -268 2
-268 -3 0 -4 -80 -4 -177 0 -149 7 -491 6 -1368 -3 -66 -1 -127 1 -135 3 -8 2
-12 2 -7 0 11 -7 9 -143 -3 -143 -5 0 -10 7 -10 15 0 8 -6 15 -12 15 -7 0 -5
5 5 11 18 10 18 12 1 30 -11 12 -13 19 -5 19 7 0 11 10 9 23 l-3 22 -437 0
c-241 0 -438 3 -438 8 0 4 -7 7 -15 7 -13 0 -15 -21 -15 -129z m1305 109 c3
-5 -1 -10 -9 -10 -9 0 -16 5 -16 10 0 6 4 10 9 10 6 0 13 -4 16 -10z m42 -45
c-7 -7 -16 -11 -21 -8 -4 3 -3 9 4 13 9 5 9 9 1 14 -6 4 -11 15 -11 24 1 14 4
13 20 -6 15 -19 17 -26 7 -37z m43 45 c0 -5 -7 -10 -15 -10 -8 0 -15 5 -15 10
0 6 7 10 15 10 8 0 15 -4 15 -10z m1724 -111 c12 -59 7 -181 -6 -177 -9 3 -14
36 -16 106 -3 99 9 136 22 71z m-1934 6 c0 -8 -4 -15 -10 -15 -5 0 -10 7 -10
15 0 8 5 15 10 15 6 0 10 -7 10 -15z m175 5 c3 -5 2 -10 -4 -10 -5 0 -13 5
-16 10 -3 6 -2 10 4 10 5 0 13 -4 16 -10z m-402 -67 c-7 -2 -21 -2 -30 0 -10
3 -4 5 12 5 17 0 24 -2 18 -5z m-28 -43 c-43 -11 -136 -11 -110 0 11 5 47 8
80 8 48 0 54 -2 30 -8z m-145 -12 c0 -5 -26 -8 -57 -7 -44 1 -52 3 -33 9 30 9
90 8 90 -2z m257 -40 c-3 -8 -6 -5 -6 6 -1 11 2 17 5 13 3 -3 4 -12 1 -19z
m1428 2 c3 -5 -3 -10 -14 -10 -12 0 -21 5 -21 10 0 6 6 10 14 10 8 0 18 -4 21
-10z m-1785 -149 c0 -31 -12 -20 -15 13 -2 14 -10 38 -17 54 -11 21 -12 35 -5
53 9 22 11 18 23 -36 7 -33 13 -71 14 -84z m357 67 c-2 -13 -4 -3 -4 22 0 25
2 35 4 23 2 -13 2 -33 0 -45z m-97 44 c0 -4 -8 -8 -17 -8 -10 -1 -67 -5 -127
-9 -67 -5 -107 -4 -103 1 3 6 34 11 68 12 35 2 65 5 68 7 8 8 111 5 111 -3z
m2180 -68 c0 -8 -4 -14 -9 -14 -6 0 -12 -15 -14 -32 -2 -18 -3 -10 -1 17 3 61
2 58 14 50 6 -3 10 -13 10 -21z m150 -4 c0 -16 -4 -30 -10 -30 -5 0 -10 14
-10 30 0 17 5 30 10 30 6 0 10 -13 10 -30z m-2342 8 c-3 -9 -31 -14 -81 -16
-62 -2 -75 -6 -70 -17 4 -11 -3 -15 -25 -15 -17 0 -34 5 -37 10 -3 6 5 10 19
10 13 0 26 5 28 11 3 8 55 18 156 28 8 0 12 -5 10 -11z m90 0 c-6 -18 -28 -21
-28 -4 0 9 7 16 16 16 9 0 14 -5 12 -12z m2260 -91 c2 -28 -1 -37 -12 -37 -12
0 -16 11 -16 41 0 52 24 48 28 -4z m-2370 -18 c-3 -8 -7 -3 -11 10 -4 17 -3
21 5 13 5 -5 8 -16 6 -23z m107 21 c3 -5 1 -10 -4 -10 -6 0 -11 5 -11 10 0 6
2 10 4 10 3 0 8 -4 11 -10z m1285 -10 c0 -5 -4 -10 -10 -10 -5 0 -10 5 -10 10
0 6 5 10 10 10 6 0 10 -4 10 -10z m344 -32 c13 -40 14 -88 3 -88 -7 0 -13 8
-13 18 0 9 -4 32 -8 50 -5 21 -4 32 4 32 6 0 12 -6 14 -12z m-2219 -38 c3 -5
-1 -10 -9 -10 -9 0 -16 5 -16 10 0 6 4 10 9 10 6 0 13 -4 16 -10z m-315 -15
c0 -8 -4 -15 -9 -15 -5 0 -11 7 -15 15 -3 9 0 15 9 15 8 0 15 -7 15 -15z m283
1 c3 -8 0 -17 -8 -19 -7 -3 -15 3 -18 14 -6 22 18 27 26 5z m100 0 c3 -8 0
-17 -8 -19 -7 -3 -15 3 -18 14 -6 22 18 27 26 5z m2122 -6 c3 -5 1 -10 -4 -10
-6 0 -11 5 -11 10 0 6 2 10 4 10 3 0 8 -4 11 -10z m5 -30 c0 -5 -12 -10 -27
-9 l-28 1 25 8 c14 4 26 8 28 9 1 1 2 -3 2 -9z m763 -72 c19 -40 40 -91 48
-113 8 -22 16 -42 19 -45 4 -3 16 -30 29 -60 12 -30 32 -75 43 -100 11 -25 26
-58 33 -75 12 -25 12 -31 0 -38 -8 -4 -22 -7 -31 -5 -9 2 -19 -2 -21 -8 -2 -6
10 -9 31 -6 30 3 35 0 50 -29 20 -39 20 -45 2 -52 -10 -4 -13 -1 -10 8 3 8 -1
22 -10 30 -9 9 -16 12 -16 6 0 -6 -5 -11 -11 -11 -5 0 -7 5 -3 12 4 6 3 8 -4
4 -5 -3 -12 0 -15 6 -2 7 -8 9 -13 5 -5 -4 -4 -11 1 -15 10 -7 33 -77 39 -114
1 -10 5 -21 9 -24 4 -4 7 -16 7 -26 0 -10 5 -18 10 -18 6 0 10 5 10 10 0 6 11
8 25 4 23 -6 25 -3 25 27 l0 34 14 -27 c8 -15 21 -40 29 -55 8 -15 23 -46 33
-68 10 -22 20 -42 21 -45 2 -4 -28 -7 -67 -8 -66 -3 -70 -2 -70 19 0 17 5 20
21 16 12 -3 22 0 26 9 3 10 9 11 17 5 8 -6 11 -2 12 15 1 15 -4 24 -13 24 -7
0 -27 7 -43 15 -24 12 -30 13 -30 2 0 -7 5 -18 12 -25 9 -9 9 -15 0 -24 -8 -8
-14 -5 -22 16 -5 15 -10 33 -10 40 0 6 -4 16 -9 22 -6 5 -14 27 -20 49 -5 22
-19 65 -31 95 -62 155 -170 494 -170 533 0 38 5 57 16 57 2 0 19 -33 37 -72z
m-186 56 c-3 -3 -12 -4 -19 -1 -8 3 -5 6 6 6 11 1 17 -2 13 -5z m-2864 -11
c-7 -2 -21 -2 -30 0 -10 3 -4 5 12 5 17 0 24 -2 18 -5z m363 -18 c14 -13 14
-15 -1 -15 -12 0 -16 -8 -15 -32 3 -57 0 -88 -8 -88 -13 0 -14 107 -2 115 8 5
7 11 -1 21 -16 20 7 19 27 -1z m1974 -6 c0 -11 -4 -18 -10 -14 -5 3 -7 12 -3
20 7 21 13 19 13 -6z m603 -13 c11 -11 17 -12 26 -3 8 8 11 -18 10 -103 l-2
-115 -13 100 -13 100 2 -215 c2 -214 2 -215 -20 -218 -28 -4 -31 10 -37 260
-5 194 -4 204 26 207 4 1 13 -5 21 -13z m-2435 -30 c-1 -19 -5 -33 -8 -31 -4
2 -6 14 -4 27 1 13 3 26 3 31 1 4 3 7 6 7 3 0 5 -15 3 -34z m2358 -61 c0 -49
4 -152 8 -227 l8 -138 -36 0 c-20 0 -38 6 -41 13 -2 6 -6 75 -9 152 -3 77 -8
170 -12 207 -6 65 -6 68 17 77 13 6 33 9 44 8 18 -2 20 -10 21 -92z m-2456 24
c23 -62 23 -59 11 -59 -7 0 -17 26 -39 110 -9 33 10 -1 28 -51z m1783 15 c28
-18 37 -32 35 -47 -7 -50 -118 -10 -118 42 0 39 30 41 83 5z m-1608 -24 c-2
-27 -15 -38 -15 -13 0 16 8 33 15 33 1 0 1 -9 0 -20z m-240 -79 c-9 -16 -25
-3 -18 15 4 10 9 12 15 6 6 -6 7 -15 3 -21z m164 4 c-11 -9 -42 -8 -46 2 -3 7
3 9 16 6 14 -3 21 0 22 8 0 11 2 11 6 1 3 -7 3 -15 2 -17z m188 3 c-3 -8 -6
-5 -6 6 -1 11 2 17 5 13 3 -3 4 -12 1 -19z m-347 -100 c7 -40 15 -82 16 -93 2
-11 8 -40 13 -65 6 -25 10 -54 10 -65 -1 -29 -29 39 -33 79 -2 17 -8 42 -13
56 -13 33 -24 160 -14 160 4 0 14 -33 21 -72z m140 51 c0 -6 -4 -7 -10 -4 -5
3 -10 11 -10 16 0 6 5 7 10 4 6 -3 10 -11 10 -16z m278 -7 c5 -31 -15 -27 -21
3 -3 16 0 24 7 22 6 -2 12 -13 14 -25z m-321 -4 c-3 -8 -6 -5 -6 6 -1 11 2 17
5 13 3 -3 4 -12 1 -19z m113 13 c0 -6 -4 -13 -10 -16 -5 -3 -10 1 -10 9 0 9 5
16 10 16 6 0 10 -4 10 -9z m2478 -25 c3 -12 -1 -17 -10 -14 -7 3 -15 13 -16
22 -3 12 1 17 10 14 7 -3 15 -13 16 -22z m-2625 7 c-7 -2 -21 -2 -30 0 -10 3
-4 5 12 5 17 0 24 -2 18 -5z m57 -48 l0 -36 -30 16 c-36 19 -38 28 -7 43 34
16 37 15 37 -23z m50 16 c0 -6 -4 -13 -10 -16 -5 -3 -10 1 -10 9 0 9 5 16 10
16 6 0 10 -4 10 -9z m2551 -81 c40 -104 40 -113 2 -121 -18 -3 -36 -2 -42 4
-15 15 -15 200 0 195 6 -2 24 -37 40 -78z m-84 -73 c-2 -23 -3 -1 -3 48 0 50
1 68 3 42 2 -26 2 -67 0 -90z m-2539 31 c-2 -17 -10 -33 -18 -35 -10 -3 -11
-2 -4 4 7 4 10 20 9 36 -2 15 1 27 7 27 5 0 8 -14 6 -32z m39 10 c-3 -8 -6 -5
-6 6 -1 11 2 17 5 13 3 -3 4 -12 1 -19z m183 8 c0 -2 -7 -9 -15 -16 -13 -11
-14 -10 -9 4 5 14 24 23 24 12z m-110 -32 c0 -8 -4 -12 -10 -9 -5 3 -10 10
-10 16 0 5 5 9 10 9 6 0 10 -7 10 -16z m207 -201 c-1 -43 -3 -10 -3 72 0 83 2
118 3 78 2 -40 2 -107 0 -150z m-170 175 c-3 -8 -6 -5 -6 6 -1 11 2 17 5 13 3
-3 4 -12 1 -19z m1631 -5 c0 -10 3 -26 7 -35 5 -13 3 -18 -9 -18 -8 0 -18 11
-22 25 -3 14 -10 25 -15 25 -5 0 -9 5 -9 10 0 6 11 10 24 10 17 0 25 -5 24
-17z m92 -30 c0 -38 0 -38 -14 -13 -8 16 -9 29 -3 38 15 19 17 15 17 -25z
m-1783 -35 c-2 -13 -4 -3 -4 22 0 25 2 35 4 23 2 -13 2 -33 0 -45z m-37 38 c0
-2 -9 -6 -20 -9 -11 -3 -20 -1 -20 4 0 5 9 9 20 9 11 0 20 -2 20 -4z m125 -90
c3 -21 8 -42 10 -47 3 -4 1 -10 -4 -13 -10 -6 -18 31 -25 109 -4 42 -4 45 5
20 5 -16 12 -48 14 -69z m2229 10 c-3 -22 -7 -51 -10 -63 -2 -12 0 -25 6 -28
13 -8 13 -185 1 -185 -17 0 -20 14 -27 147 -7 144 -2 186 21 177 11 -5 14 -16
9 -48z m86 10 c1 -17 3 -75 6 -128 4 -64 2 -103 -6 -115 -9 -14 -10 -5 -7 43
3 33 1 67 -3 75 -4 8 -10 48 -12 91 -4 61 -2 75 9 71 7 -3 13 -19 13 -37z
m191 -28 c12 -37 20 -70 16 -74 -4 -4 -7 -1 -7 7 0 8 -8 23 -17 34 -12 15 -14
16 -10 3 3 -9 -1 -22 -9 -28 -8 -7 -14 -18 -14 -26 0 -7 -7 -20 -16 -28 -8 -9
-12 -20 -9 -26 3 -5 -1 -10 -9 -10 -14 0 -16 17 -16 108 l0 108 34 0 c32 0 34
-2 57 -68z m-2719 30 c-8 -8 -9 -4 -5 13 4 13 8 18 11 10 2 -7 -1 -18 -6 -23z
m93 22 c3 -5 -1 -10 -10 -10 -9 0 -13 5 -10 10 3 6 8 10 10 10 2 0 7 -4 10
-10z m1620 -10 c3 -5 1 -10 -4 -10 -6 0 -11 5 -11 10 0 6 2 10 4 10 3 0 8 -4
11 -10z m-2275 -36 c0 -2 -12 -4 -26 -4 -14 0 -23 4 -20 9 6 8 46 4 46 -5z
m77 0 c-3 -3 -12 -4 -19 -1 -8 3 -5 6 6 6 11 1 17 -2 13 -5z m603 -9 c0 -17
-39 -60 -47 -52 -4 5 36 67 44 67 2 0 3 -7 3 -15z m2820 -5 c0 -5 -4 -10 -10
-10 -5 0 -10 5 -10 10 0 6 5 10 10 10 6 0 10 -4 10 -10z m-3220 -4 c0 -3 -4
-8 -10 -11 -5 -3 -10 -1 -10 4 0 6 5 11 10 11 6 0 10 -2 10 -4z m280 -11 c0
-8 -8 -15 -17 -15 -15 0 -14 -2 4 -15 12 -8 30 -12 40 -9 16 5 16 4 -2 -7 -10
-7 -46 -13 -79 -13 -58 -1 -59 0 -60 27 -2 24 2 27 34 28 19 0 44 4 55 9 11 5
21 9 23 9 1 1 2 -6 2 -14z m-587 -32 c-7 -2 -19 -2 -25 0 -7 3 -2 5 12 5 14 0
19 -2 13 -5z m652 -32 c-3 -6 -11 -11 -17 -11 -6 0 -6 6 2 15 14 17 26 13 15
-4z m167 -13 c-9 -9 -12 -7 -12 12 0 19 3 21 12 12 9 -9 9 -15 0 -24z m-495 6
c-3 -3 -12 -4 -19 -1 -8 3 -5 6 6 6 11 1 17 -2 13 -5z m3035 -60 c22 -88 22
-89 -59 -92 -58 -2 -73 0 -73 11 0 8 -3 29 -6 46 -4 20 -3 31 5 31 6 0 11 -9
11 -20 0 -15 7 -20 29 -20 46 0 50 31 6 44 -11 3 -1 4 23 2 23 -2 42 -2 42 1
0 3 -10 14 -22 25 -18 15 -19 18 -5 14 9 -3 17 0 17 6 0 24 21 -9 32 -48z
m-2764 35 c-19 -11 -286 -24 -275 -13 3 4 64 10 134 14 70 4 135 7 143 8 11 1
11 -1 -2 -9z m85 -26 c-7 -2 -19 -2 -25 0 -7 3 -2 5 12 5 14 0 19 -2 13 -5z
m-106 -65 c0 -13 3 -52 8 -87 5 -42 5 -62 -2 -58 -18 11 -26 167 -8 167 2 0 3
-10 2 -22z m4018 -37 c-3 -16 -12 -35 -20 -41 -11 -9 -12 -7 -8 12 6 30 25 69
31 64 2 -3 1 -18 -3 -35z m-3891 20 c5 -8 -84 -3 -93 5 -2 2 16 4 42 4 25 0
48 -4 51 -9z m61 -11 c3 -5 21 -8 40 -5 27 3 33 1 28 -10 -3 -8 2 -18 11 -21
11 -4 14 -14 10 -33 -4 -19 -3 -22 5 -11 14 20 20 10 14 -21 -5 -26 -6 -26
-46 -16 -23 5 -48 15 -55 20 -8 6 -46 14 -85 17 l-72 7 77 2 c42 0 80 -3 83
-9 10 -16 65 -12 65 4 0 23 -17 28 -89 31 -36 1 -79 6 -96 10 -26 7 -27 9 -10
16 11 4 32 8 48 8 15 1 27 6 27 11 0 13 37 13 45 0z m2786 -87 c1 -17 2 -17 6
0 7 27 23 20 24 -10 0 -16 2 -41 4 -58 2 -16 -1 -35 -7 -42 -13 -16 -102 -18
-92 -2 4 7 1 10 -7 7 -8 -3 -19 2 -26 11 -14 18 -18 101 -5 101 16 0 22 -13
12 -25 -6 -7 -7 -26 -4 -43 5 -22 12 -30 25 -29 11 1 17 7 15 14 -3 7 -1 15 4
18 5 3 4 16 -2 31 -10 20 -9 27 3 35 23 14 49 10 50 -8z m-161 -31 c0 -25 -7
-48 -20 -62 -11 -13 -20 -19 -20 -14 0 6 5 15 11 21 15 15 -8 39 -45 49 -14 3
-26 10 -26 15 0 5 -21 10 -47 11 l-48 1 55 7 c30 4 74 7 98 8 l42 2 0 -38z
m-250 14 c0 -3 -4 -8 -10 -11 -5 -3 -10 -1 -10 4 0 6 5 11 10 11 6 0 10 -2 10
-4z m-2876 -30 c-3 -9 -10 -16 -15 -16 -5 0 -4 9 3 20 14 22 21 20 12 -4z m59
-24 c3 -24 1 -40 -4 -36 -5 3 -9 24 -9 46 0 51 5 47 13 -10z m407 33 l35 -13
-52 -1 c-49 -1 -71 8 -56 23 9 9 34 6 73 -9z m-141 -42 c0 -25 -1 -25 -8 -8
-5 11 -7 23 -4 28 8 14 13 7 12 -20z m1821 20 c0 -4 -16 -40 -36 -81 l-36 -74
-37 41 c-40 45 -51 50 -51 24 0 -14 -2 -15 -12 -4 -11 10 -8 16 11 32 19 16
42 23 54 18 1 -1 22 10 47 24 47 27 60 32 60 20z m-1590 -13 c10 -7 -18 -10
-88 -10 -66 0 -101 4 -97 10 8 13 165 13 185 0z m70 0 c0 -5 -2 -10 -4 -10 -3
0 -8 5 -11 10 -3 6 -1 10 4 10 6 0 11 -4 11 -10z m1564 -26 c3 -9 6 -17 6 -19
0 -1 -21 -20 -47 -41 l-48 -38 30 35 c17 18 34 36 38 40 4 3 5 13 1 22 -3 9
-2 17 4 17 5 0 13 -7 16 -16z m-1569 -4 c19 0 26 -3 19 -10 -5 -5 -32 -7 -62
-3 -35 4 -49 9 -40 15 7 4 22 6 33 3 11 -2 33 -5 50 -5z m2720 -20 c3 -5 1
-10 -4 -10 -6 0 -11 5 -11 10 0 6 2 10 4 10 3 0 8 -4 11 -10z m-1435 -40 c0
-5 -5 -10 -11 -10 -5 0 -7 5 -4 10 3 6 8 10 11 10 2 0 4 -4 4 -10z m74 -41
c11 -57 5 -75 -10 -29 -16 53 -17 60 -5 60 5 0 11 -14 15 -31z m3024 -31 c2
-28 -1 -39 -17 -47 -34 -19 -71 4 -71 45 0 29 21 45 55 42 27 -3 30 -7 33 -40z
m-3101 -20 l-16 -33 1 35 c1 43 7 55 21 41 7 -7 5 -20 -6 -43z m1566 3 c14
-17 26 -28 28 -26 2 1 96 6 209 9 314 10 350 14 359 39 6 15 10 -6 14 -68 9
-151 14 -700 7 -802 -1 -27 5 -57 19 -86 11 -24 21 -57 21 -74 0 -33 -15 -41
-92 -48 -45 -4 -47 3 -18 70 42 98 16 249 -60 345 -60 76 -196 133 -305 129
-49 -2 -68 2 -100 22 -26 16 -34 25 -24 27 43 8 67 147 44 247 -2 12 -20 29
-40 38 -28 13 -35 22 -35 45 0 36 -53 147 -74 155 -9 4 -16 11 -16 17 0 16 34
-5 63 -39z m-2614 -7 c-12 -13 -25 -21 -28 -18 -3 3 2 10 11 15 10 5 15 16 11
24 -4 11 -1 13 11 9 15 -6 15 -9 -5 -30z m2021 26 c0 -5 -2 -10 -4 -10 -3 0
-8 5 -11 10 -3 6 -1 10 4 10 6 0 11 -4 11 -10z m73 -17 c-7 -3 -13 -11 -13
-18 0 -7 -8 -27 -17 -44 -19 -33 -47 -41 -57 -15 -10 25 -7 54 5 54 6 0 9 -6
6 -13 -8 -22 6 -37 21 -21 10 11 10 14 0 14 -7 0 3 13 22 30 19 16 37 26 40
23 3 -3 -1 -8 -7 -10z m-982 -20 c6 -17 6 -72 0 -167 -11 -155 -40 -444 -46
-463 -7 -22 -25 -14 -25 12 0 13 -6 28 -14 32 -19 12 -32 55 -14 52 24 -3 38
1 38 11 0 6 -8 10 -18 10 -23 0 -42 19 -42 42 0 10 -6 18 -13 18 -9 0 -12 10
-9 30 2 17 8 30 13 30 5 0 9 5 9 11 0 5 -4 8 -9 4 -5 -3 -12 -1 -15 4 -3 5 10
12 29 15 38 7 46 29 18 45 -15 9 -14 10 10 11 45 0 69 17 61 43 -4 12 -7 46
-6 75 2 34 -1 51 -8 47 -14 -9 -13 8 2 23 10 10 10 15 -2 22 -8 5 -19 6 -25 3
-5 -3 -4 0 3 8 9 10 15 10 24 1 27 -27 30 -15 19 91 -1 5 -6 5 -11 2 -6 -4 -8
-11 -5 -16 4 -5 1 -9 -4 -9 -12 0 -15 23 -4 33 14 15 34 6 44 -20z m172 -23
l6 -35 -14 30 c-16 34 -20 64 -6 50 4 -6 11 -26 14 -45z m-1338 18 c-11 -36
-25 -45 -25 -17 0 27 7 39 22 39 5 0 6 -10 3 -22z m208 -19 c-18 -30 -18 -31
5 -49 30 -25 28 -53 -8 -90 -34 -35 -44 -64 -38 -119 2 -22 0 -37 -4 -35 -5 3
-8 22 -8 44 0 32 -4 39 -25 44 -30 8 -34 40 -6 58 19 12 19 12 0 40 l-20 28
21 30 c12 17 28 30 37 30 8 0 24 11 35 25 27 34 33 31 11 -6z m210 -6 c-7 -2
-21 -2 -30 0 -10 3 -4 5 12 5 17 0 24 -2 18 -5z m-60 -10 c-7 -2 -19 -2 -25 0
-7 3 -2 5 12 5 14 0 19 -2 13 -5z m120 0 c-7 -2 -19 -2 -25 0 -7 3 -2 5 12 5
14 0 19 -2 13 -5z m651 -8 c-7 -16 -24 -21 -24 -6 0 8 7 13 27 20 1 1 0 -6 -3
-14z m-1123 -22 c-8 -15 -10 -15 -11 -2 0 17 10 32 18 25 2 -3 -1 -13 -7 -23z
m536 1 c-7 -7 -37 7 -37 17 0 6 9 5 21 -1 11 -7 19 -14 16 -16z m-633 1 c4
-12 -6 -15 -62 -14 l-67 2 52 6 c28 4 55 10 59 14 10 10 11 9 18 -8z m2133 -1
c2 -7 -6 -10 -22 -7 -14 3 -25 9 -25 13 0 12 43 6 47 -6z m2363 -45 c0 -5 -4
-9 -10 -9 -5 0 -10 7 -10 16 0 8 5 12 10 9 6 -3 10 -10 10 -16z m-3163 -31
c-3 -7 -5 -2 -5 12 0 14 2 19 5 13 2 -7 2 -19 0 -25z m458 2 c4 -6 12 -8 18
-4 7 3 3 -2 -7 -10 -11 -9 -16 -19 -13 -23 4 -4 13 -1 19 5 17 17 38 15 38 -4
0 -13 -3 -14 -13 -5 -17 13 -27 5 -28 -23 0 -15 -5 -11 -17 17 -9 20 -23 37
-30 37 -7 0 -10 5 -7 10 8 13 32 13 40 0z m-1752 -70 c-2 -70 8 -91 24 -46 l8
24 44 -38 c38 -33 43 -41 32 -54 -9 -11 -10 -16 -2 -16 6 0 11 4 11 10 0 12
70 7 91 -6 17 -11 39 -49 39 -67 0 -8 -10 -13 -22 -13 -14 1 -24 -6 -26 -16
-2 -10 2 -18 8 -18 6 0 9 4 5 9 -3 6 7 9 22 8 24 -2 28 2 31 28 2 17 10 35 19
42 9 7 21 23 27 35 6 13 22 24 34 26 12 2 22 10 22 18 0 13 54 22 85 14 6 -2
21 -5 35 -8 14 -3 27 -8 30 -11 3 -3 14 -11 25 -17 15 -9 20 -21 18 -48 -1
-35 9 -47 22 -26 8 12 25 13 25 1 0 -5 -25 -20 -55 -35 -39 -18 -55 -31 -55
-45 0 -31 11 -51 29 -52 10 0 11 -2 4 -6 -28 -11 -11 -21 33 -21 28 0 50 -6
55 -14 5 -8 9 -9 9 -2 0 7 7 11 16 10 21 -1 44 35 27 41 -7 3 -13 9 -13 15 0
6 10 3 21 -8 21 -19 22 -19 15 1 -3 11 1 32 9 48 46 83 42 79 49 60 5 -12 1
-23 -12 -33 -19 -16 -36 -60 -22 -60 4 0 6 -9 3 -20 -3 -11 0 -20 6 -20 6 0
10 3 10 8 -4 26 2 52 12 46 7 -4 8 -20 4 -43 -9 -42 -13 -69 -14 -93 -1 -10
-7 -15 -13 -13 -17 7 -68 -38 -68 -58 0 -8 -12 -30 -26 -47 -15 -17 -24 -33
-21 -36 2 -3 14 8 26 23 11 15 25 33 31 40 5 7 10 17 10 23 0 5 28 -10 63 -34
34 -24 72 -46 85 -50 12 -4 22 -14 22 -22 0 -8 -10 -14 -22 -15 -13 0 -1 -6
26 -14 51 -13 80 -39 131 -117 29 -43 58 -156 56 -215 -1 -24 3 -43 9 -43 5 0
10 -19 10 -42 0 -32 3 -39 10 -28 5 8 10 10 10 4 0 -22 -52 -104 -81 -126 -22
-18 -30 -35 -38 -78 l-9 -55 -3 45 c-1 25 -2 56 -1 70 0 14 -1 62 -4 107 -5
70 -9 83 -25 88 -18 6 -20 12 -13 62 5 41 4 54 -5 49 -6 -4 -11 -16 -11 -27 0
-10 -4 -19 -10 -19 -5 0 -10 20 -10 45 0 25 -4 45 -10 45 -15 0 -12 -122 5
-215 8 -44 15 -87 14 -95 0 -23 -46 37 -83 108 l-32 64 -1 -54 c-2 -64 6 -92
67 -233 26 -60 50 -118 53 -127 4 -10 11 -18 17 -18 5 0 10 -9 10 -20 0 -11 3
-20 8 -20 4 0 12 -11 19 -25 6 -14 9 -25 6 -25 -13 0 -50 50 -72 98 -13 28
-27 49 -32 47 -10 -7 7 -56 53 -149 34 -70 37 -81 23 -89 -14 -8 -14 -12 5
-45 14 -23 18 -38 11 -40 -15 -5 -14 -59 1 -64 6 -2 -15 -12 -48 -21 -32 -10
-77 -26 -99 -37 -22 -10 -58 -24 -80 -30 -22 -7 -67 -22 -100 -33 -46 -16 -88
-21 -185 -22 -110 -1 -286 -18 -296 -27 -2 -2 -10 -68 -18 -147 -14 -130 -31
-211 -46 -211 -3 0 -6 -37 -8 -83 -4 -119 -21 -217 -38 -217 -8 0 -14 -8 -14
-18 0 -10 -7 -27 -15 -38 -8 -10 -15 -31 -15 -46 0 -15 -6 -45 -14 -65 -19
-49 -46 -189 -46 -235 0 -21 -7 -41 -16 -49 -15 -12 -16 -11 -11 6 4 11 9 41
11 67 4 43 3 47 -16 45 -11 -1 -23 4 -25 11 -3 7 5 12 21 12 19 0 27 6 32 25
4 14 4 29 0 32 -3 3 2 12 12 19 15 12 14 13 -10 14 -16 0 -28 2 -28 4 0 2 -3
12 -6 20 -5 14 -2 15 21 6 15 -6 30 -8 33 -6 3 3 -3 8 -12 12 -23 9 -20 27 4
19 25 -8 27 16 4 36 -9 7 -14 22 -11 36 2 13 1 23 -4 23 -4 0 -15 3 -25 7 -12
4 -15 3 -10 -5 5 -8 1 -10 -11 -5 -17 6 -16 5 1 -16 13 -14 22 -18 26 -10 4 6
9 -3 12 -20 2 -17 3 -31 1 -31 -12 0 -73 54 -73 65 0 13 41 35 66 35 26 0 14
54 -13 58 -13 2 -23 10 -23 18 0 19 37 18 47 -1 10 -18 74 -25 89 -10 5 5 13
18 17 29 6 15 4 17 -13 13 -13 -3 -20 0 -20 10 0 9 8 13 23 11 17 -2 23 3 25
22 3 20 1 23 -9 13 -16 -16 -65 -17 -74 -3 -4 6 -11 8 -16 5 -5 -4 -9 -1 -9 6
0 8 -10 9 -32 5 l-31 -6 23 20 c13 11 29 20 37 20 18 0 17 19 -2 26 -35 14
-10 24 57 24 39 0 68 3 64 7 -7 8 -55 7 -364 -5 -96 -4 -175 -5 -177 -3 -2 2
3 13 11 26 12 18 24 22 72 24 31 1 140 6 242 11 102 5 193 10 203 10 9 0 17 5
17 10 0 8 -75 9 -237 4 -222 -6 -282 -3 -189 9 21 3 42 10 46 17 5 8 11 6 20
-5 8 -9 29 -15 58 -15 52 0 50 10 -5 20 l-38 8 33 1 c37 1 41 12 10 26 -30 14
-34 33 -6 37 15 2 27 -4 33 -17 6 -11 18 -21 28 -23 13 -3 18 6 23 37 6 37 10
41 35 41 31 0 48 17 25 26 -27 10 5 31 44 27 l35 -3 -25 21 c-16 15 -21 23
-12 26 16 6 16 30 0 36 -7 2 -10 8 -5 12 4 5 13 3 19 -3 15 -15 48 -16 48 -1
0 6 -7 9 -15 5 -8 -3 -15 -2 -15 3 0 5 7 14 15 21 8 7 15 19 15 26 0 16 -26
19 -35 3 -5 -7 -12 -6 -23 4 -10 8 -28 18 -42 22 -32 10 -81 51 -72 60 4 4 -3
2 -15 -6 -12 -7 -26 -10 -30 -6 -4 5 -1 12 6 16 8 6 10 14 5 22 -6 12 -5 12 8
1 14 -11 16 -10 11 10 -4 21 -3 22 10 6 16 -20 32 -24 21 -6 -4 7 6 2 23 -10
17 -12 40 -22 51 -22 11 0 22 -6 24 -12 4 -10 10 -10 31 -1 40 18 33 29 -25
39 -75 13 -79 38 -4 32 46 -4 54 -2 44 9 -8 10 -30 12 -89 7 -83 -6 -91 -2
-61 34 9 11 22 29 29 39 11 17 12 17 12 -1 1 -16 6 -18 39 -12 20 3 67 6 105
6 73 0 95 19 25 21 l-43 2 35 6 c19 4 41 3 48 -2 7 -6 15 -7 19 -3 13 12 -15
28 -52 29 -31 1 -41 7 -56 32 -10 16 -23 35 -28 42 -6 7 -11 16 -11 22 0 13
-68 83 -102 105 -16 10 -28 23 -28 28 0 6 -7 25 -16 44 -15 32 -15 36 5 79 11
25 21 49 21 55 0 5 11 42 24 82 17 52 25 107 30 194 7 134 17 164 86 245 47
56 54 79 9 30 -22 -25 -33 -31 -39 -22 -5 10 -9 9 -13 -4 -4 -9 -3 -13 3 -10
14 9 12 -9 -2 -23 -17 -17 -28 -15 -22 6 3 9 -2 6 -10 -8 -8 -14 -15 -19 -16
-12 0 7 -6 12 -12 11 -7 -1 -22 -1 -33 0 l-20 2 20 11 c11 7 26 13 34 14 22 4
36 22 15 21 -13 -2 -19 4 -18 19 0 11 -5 21 -12 21 -13 0 -13 -15 -1 -34 5 -7
4 -13 -2 -13 -5 0 -12 9 -16 19 -5 16 -15 19 -58 19 -62 0 -127 15 -110 25 6
4 43 8 82 9 46 1 72 6 75 14 3 8 -1 11 -10 7 -7 -3 -14 -1 -14 5 0 5 9 12 20
15 13 3 20 0 20 -9 0 -8 9 -14 20 -14 11 0 20 7 20 15 0 8 6 15 14 15 19 0 28
40 10 47 -8 3 -21 2 -30 -1 -9 -3 -12 -2 -8 5 3 6 25 9 50 6 25 -2 47 0 50 4
2 4 -23 11 -57 15 -90 10 -52 24 68 24 63 0 104 4 109 11 4 8 -3 9 -26 4 -36
-8 -110 3 -92 14 14 9 1 30 -18 29 -31 -3 -80 15 -80 28 0 8 -9 14 -21 14 -14
0 -19 5 -16 14 3 8 -1 17 -10 20 -14 6 -13 9 4 26 15 14 39 20 85 22 56 3 63
5 61 23 -1 10 7 25 18 33 38 26 3 41 -48 20 -30 -12 -44 -15 -83 -20 -20 -2
-24 1 -21 17 3 19 2 19 -17 2 -24 -22 -87 -19 -87 4 0 8 8 13 18 11 9 -2 17 3
17 11 0 15 41 37 68 37 15 0 15 -2 2 -10 -11 -7 -1 -9 31 -7 33 1 45 6 41 15
-2 7 4 19 14 27 11 8 15 15 11 15 -4 0 -3 9 3 20 9 16 8 20 -5 20 -8 0 -20 -9
-27 -20 -17 -27 -28 -25 -28 5 0 14 5 25 11 25 5 0 7 5 4 10 -3 6 7 18 24 28
17 9 31 20 31 25 0 4 11 12 25 17 16 6 23 14 19 25 -7 17 1 45 13 45 4 0 7
-31 6 -70z m1173 38 c1 -18 -3 -25 -12 -21 -8 3 -12 9 -9 13 3 5 1 11 -5 15
-13 8 -2 27 13 22 7 -2 12 -15 13 -29z m-334 5 c2 -10 -2 -32 -9 -50 -16 -40
-16 -50 -1 -35 19 19 28 14 28 -17 0 -17 5 -33 11 -37 7 -4 -3 -14 -26 -25
-21 -11 -40 -19 -42 -19 -10 0 -1 40 12 50 11 9 12 16 4 26 -12 14 -4 70 12
79 5 4 5 14 -1 26 -7 11 -7 19 -1 19 5 0 11 -8 13 -17z m-762 -15 c-8 -7 -21
-19 -27 -27 -8 -9 -13 -10 -13 -4 0 15 28 43 43 43 6 0 5 -5 -3 -12z m1650 -9
c0 -5 -4 -9 -10 -9 -5 0 -10 7 -10 16 0 8 5 12 10 9 6 -3 10 -10 10 -16z m-81
-17 c9 -8 10 -16 4 -20 -5 -4 -12 -15 -16 -24 -3 -10 -12 -18 -18 -18 -8 0 -8
4 -1 13 8 9 7 21 -3 41 -8 16 -15 30 -15 32 0 7 35 -10 49 -24z m-2726 11 c-7
-2 -19 -2 -25 0 -7 3 -2 5 12 5 14 0 19 -2 13 -5z m2243 -24 c7 -3 8 -11 3
-24 -8 -19 -8 -19 -15 3 -5 18 -9 20 -20 11 -8 -7 -18 -8 -22 -4 -4 4 -2 10 5
12 7 2 9 12 6 21 -6 16 -5 16 13 1 10 -9 24 -18 30 -20z m3271 -11 c-3 -8 -6
-5 -6 6 -1 11 2 17 5 13 3 -3 4 -12 1 -19z m-4331 -3 c-23 -17 -36 -19 -36 -6
0 5 8 12 18 14 32 9 37 6 18 -8z m1624 7 c0 -4 -9 -15 -20 -25 -11 -9 -20 -28
-20 -42 0 -19 -5 -25 -21 -25 -14 0 -18 4 -12 13 4 6 8 17 8 24 0 26 65 81 65
55z m47 -9 c-4 -3 -2 -12 4 -19 8 -10 3 -17 -20 -29 -17 -8 -31 -11 -31 -6 0
6 9 15 20 21 11 6 17 16 14 25 -4 8 -1 15 7 15 7 0 9 -3 6 -7z m663 -43 c0 -5
-2 -10 -4 -10 -3 0 -8 5 -11 10 -3 6 -1 10 4 10 6 0 11 -4 11 -10z m-846 -22
c12 -13 38 -89 32 -95 -2 -2 -19 -6 -38 -10 -33 -5 -36 -3 -47 27 -15 44 -15
45 15 25 27 -18 46 -13 26 7 -12 12 -17 58 -6 58 3 0 11 -6 18 -12z m2786 -10
c0 -19 -2 -20 -10 -8 -13 19 -13 30 0 30 6 0 10 -10 10 -22z m-2696 -43 c3 -8
12 -15 20 -15 7 0 17 -7 20 -16 3 -8 10 -13 15 -9 12 7 52 -25 45 -37 -3 -4
-14 -8 -26 -8 -17 0 -20 -4 -14 -30 3 -16 1 -30 -4 -30 -14 0 -20 16 -22 54
-1 35 -16 50 -41 40 -16 -6 -42 39 -33 55 10 16 33 14 40 -4z m-1834 -5 c0 -5
-4 -10 -9 -10 -6 0 -13 5 -16 10 -3 6 1 10 9 10 9 0 16 -4 16 -10z m1627 -15
c28 -13 54 -29 58 -35 8 -13 -1 -13 -26 0 -13 7 -25 8 -37 1 -14 -9 -13 -10
11 -11 33 0 36 -16 4 -24 -12 -3 -33 -16 -47 -28 -13 -13 -27 -23 -30 -22 -3
0 -13 -10 -24 -23 -14 -19 -17 -34 -12 -71 16 -124 31 -167 77 -222 l20 -25
-5 45 c-7 52 7 77 47 84 15 3 39 13 55 23 15 11 43 24 63 30 31 9 38 8 48 -8
6 -11 21 -19 34 -19 12 -1 33 -7 46 -14 23 -13 23 -13 -22 -35 -50 -24 -58
-42 -44 -105 4 -21 5 -48 2 -60 -2 -11 -2 -15 1 -8 3 6 17 12 30 12 22 0 23 2
14 20 -6 11 -8 25 -4 31 4 6 0 16 -7 21 -10 6 -4 7 18 3 18 -4 34 -2 38 4 3 6
13 11 21 11 12 0 13 -4 3 -21 -8 -16 -8 -20 1 -14 8 5 9 -9 4 -57 -9 -80 -41
-131 -96 -153 -39 -15 -42 -15 -89 10 -65 34 -53 9 18 -38 44 -30 65 -37 103
-37 46 0 48 1 64 43 9 23 16 53 16 66 0 47 27 3 29 -47 1 -45 -2 -51 -52 -104
-54 -58 -99 -80 -120 -59 -8 8 -3 11 21 11 18 0 32 5 32 10 0 6 -15 10 -32 10
-55 0 -139 96 -195 223 -9 20 -20 37 -24 37 -7 0 -27 -23 -57 -66 -11 -17 -12
-14 -7 19 5 33 3 39 -14 44 -12 3 -21 8 -21 12 0 3 -14 22 -31 41 l-30 35 23
-44 c13 -24 29 -53 36 -65 23 -40 11 -58 -53 -80 -79 -28 -103 -42 -134 -79
-43 -50 -61 -81 -61 -104 0 -20 -16 -40 -25 -31 -2 1 1 24 5 50 29 154 45 354
35 434 -5 45 -9 54 -17 41 -5 -10 -7 -32 -4 -50 6 -29 5 -30 -4 -8 -8 18 -7
39 2 75 11 42 13 46 19 25 5 -21 7 -22 14 -6 11 27 142 155 175 172 23 12 30
22 30 45 0 16 5 32 10 35 6 3 10 19 10 34 0 49 14 52 87 16z m863 -55 c-7 -14
-7 -20 0 -20 5 0 10 -9 10 -20 0 -12 -7 -20 -17 -20 -9 0 -13 3 -10 6 3 4 2
15 -3 25 -7 13 -6 22 6 33 21 22 27 20 14 -4z m-2977 3 c-7 -2 -21 -2 -30 0
-10 3 -4 5 12 5 17 0 24 -2 18 -5z m2932 -13 c-3 -5 -27 -9 -53 -8 l-47 1 50
7 c28 4 51 8 53 8 2 1 0 -2 -3 -8z m2048 -11 c-4 -13 -9 -17 -15 -11 -11 11
-3 32 12 32 4 0 6 -9 3 -21z m-3693 -8 c0 -12 -10 -21 -26 -25 -20 -5 -24 -10
-15 -19 6 -6 11 -15 11 -19 0 -12 -48 -10 -55 2 -3 6 1 10 11 10 13 0 14 3 4
15 -10 13 -9 15 11 15 19 0 21 2 9 10 -12 8 -9 10 13 10 15 0 27 5 27 10 0 6
2 10 5 10 3 0 5 -9 5 -19z m-917 -26 c-22 -15 -167 -24 -180 -11 -4 3 23 7 58
7 35 1 78 5 94 9 47 12 51 11 28 -5z m2567 0 c-14 -16 -50 -21 -50 -6 0 11 18
19 44 20 15 1 16 -2 6 -14z m-3030 -5 c0 -12 -27 -12 -55 0 -16 7 -13 9 18 9
20 1 37 -3 37 -9z m1370 -10 c0 -5 -4 -10 -10 -10 -5 0 -10 5 -10 10 0 6 5 10
10 10 6 0 10 -4 10 -10z m1749 -22 c7 -13 27 -34 45 -48 45 -33 69 -100 36
-100 -4 0 -11 18 -15 40 -4 22 -11 40 -16 40 -17 0 -89 63 -89 77 0 21 26 15
39 -9z m-3186 5 c-7 -2 -19 -2 -25 0 -7 3 -2 5 12 5 14 0 19 -2 13 -5z m1567
-75 c-1 -34 -3 -39 -11 -26 -8 15 -3 68 7 68 2 0 4 -19 4 -42z m-1340 12 c0
-5 -4 -10 -10 -10 -5 0 -10 5 -10 10 0 6 5 10 10 10 6 0 10 -4 10 -10z m3249
-7 c-8 -10 -18 -21 -22 -24 -4 -3 -18 -25 -31 -49 -13 -24 -29 -46 -36 -48
-18 -6 25 64 64 106 32 34 47 43 25 15z m-3312 1 c-3 -3 -12 -4 -19 -1 -8 3
-5 6 6 6 11 1 17 -2 13 -5z m-429 -16 c-3 -7 -11 -13 -18 -13 -7 0 -15 6 -17
13 -3 7 4 12 17 12 13 0 20 -5 18 -12z m39 6 c-3 -3 -12 -4 -19 -1 -8 3 -5 6
6 6 11 1 17 -2 13 -5z m243 -53 c0 -5 -12 -12 -27 -16 -43 -11 -114 -14 -107
-4 3 5 -1 9 -8 10 -7 0 -4 4 7 9 27 11 135 12 135 1z m1565 -1 c3 -5 1 -10 -4
-10 -6 0 -11 5 -11 10 0 6 2 10 4 10 3 0 8 -4 11 -10z m1955 -20 c-35 -7 -35
-7 -10 -18 14 -6 18 -11 10 -11 -13 0 -60 31 -60 41 0 2 21 1 48 -1 47 -5 47
-5 12 -11z m-2815 0 c3 -5 -1 -10 -9 -10 -9 0 -16 5 -16 10 0 6 4 10 9 10 6 0
13 -4 16 -10z m1615 1 c0 -5 -7 -11 -15 -15 -9 -3 -15 0 -15 9 0 8 7 15 15 15
8 0 15 -4 15 -9z m303 -32 c19 -34 25 -159 7 -159 -10 0 -15 34 -11 82 1 15
-5 38 -13 50 -17 23 -22 58 -8 58 4 0 15 -14 25 -31z m-2804 12 c18 -11 -60
-25 -105 -18 -18 2 -9 5 24 6 28 0 52 6 52 11 0 12 10 13 29 1z m3657 -3 c7
-11 -38 -10 -56 2 -11 8 -7 10 18 8 19 -1 36 -6 38 -10z m-183 -27 c14 -29 13
-41 -5 -41 -11 0 -30 49 -22 61 8 14 11 11 27 -20z m-3203 -1 c0 -5 -22 -10
-50 -10 -27 0 -50 5 -50 10 0 6 23 10 50 10 28 0 50 -4 50 -10z m480 -2 c0 -4
-4 -8 -9 -8 -6 0 -12 4 -15 8 -3 5 1 9 9 9 8 0 15 -4 15 -9z m2100 2 c0 -5 -5
-10 -11 -10 -5 0 -7 5 -4 10 3 6 8 10 11 10 2 0 4 -4 4 -10z m-2693 -6 c-3 -3
-12 -4 -19 -1 -8 3 -5 6 6 6 11 1 17 -2 13 -5z m1728 -4 c3 -5 -1 -10 -9 -10
-9 0 -16 5 -16 10 0 6 4 10 9 10 6 0 13 -4 16 -10z m1696 -18 c-23 -2 -35 -9
-38 -23 -5 -18 -23 -17 -23 1 0 16 52 38 74 31 17 -5 14 -7 -13 -9z m164 -3
c32 -6 26 -7 -35 -6 -81 0 -94 3 -84 19 4 6 21 7 43 2 20 -4 54 -10 76 -15z
m138 14 c-7 -2 -19 -2 -25 0 -7 3 -2 5 12 5 14 0 19 -2 13 -5z m-4053 -13 c0
-5 -4 -10 -10 -10 -5 0 -10 5 -10 10 0 6 5 10 10 10 6 0 10 -4 10 -10z m590 0
c0 -5 -5 -10 -11 -10 -5 0 -7 5 -4 10 3 6 8 10 11 10 2 0 4 -4 4 -10z m2320
-10 c-26 -22 -64 -27 -58 -7 4 10 33 21 72 26 5 0 -1 -8 -14 -19z m-867 -17
c-7 -2 -19 -2 -25 0 -7 3 -2 5 12 5 14 0 19 -2 13 -5z m1624 -29 c2 -27 1 -28
-13 -10 -17 24 -18 49 -2 44 7 -3 14 -18 15 -34z m-3202 6 c3 -5 -1 -10 -9
-10 -9 0 -16 5 -16 10 0 6 4 10 9 10 6 0 13 -4 16 -10z m-75 -70 c0 -5 -7 -7
-15 -4 -8 4 -12 10 -9 15 6 11 24 2 24 -11z m357 -6 c-3 -3 -12 -4 -19 -1 -8
3 -5 6 6 6 11 1 17 -2 13 -5z m3343 -36 c0 -13 -23 -5 -28 10 -2 7 2 10 12 6
9 -3 16 -11 16 -16z m-3150 2 c0 -5 -2 -10 -4 -10 -3 0 -8 5 -11 10 -3 6 -1
10 4 10 6 0 11 -4 11 -10z m2938 -13 c5 -24 -24 -21 -31 4 -4 15 -1 19 11 17
9 -2 18 -11 20 -21z m-3316 -9 c-6 -6 -15 -8 -19 -4 -4 4 -1 11 7 16 19 12 27
3 12 -12z m-67 -8 c-3 -5 -10 -10 -16 -10 -5 0 -9 5 -9 10 0 6 7 10 16 10 8 0
12 -4 9 -10z m245 0 c-20 -13 -40 -13 -40 0 0 6 12 10 28 10 21 0 24 -2 12
-10z m3410 0 c0 -5 -7 -10 -15 -10 -8 0 -15 5 -15 10 0 6 7 10 15 10 8 0 15
-4 15 -10z m-3865 -30 c3 -6 -1 -7 -9 -4 -18 7 -21 14 -7 14 6 0 13 -4 16 -10z
m3459 -25 c11 -9 14 -15 7 -15 -7 0 -19 7 -27 15 -20 19 -5 19 20 0z m-2731
-15 c-3 -11 -7 -20 -9 -20 -2 0 -4 9 -4 20 0 11 4 20 9 20 5 0 7 -9 4 -20z
m3177 0 c0 -5 -4 -10 -9 -10 -6 0 -13 5 -16 10 -3 6 1 10 9 10 9 0 16 -4 16
-10z m-3950 -14 c0 -3 -4 -8 -10 -11 -5 -3 -10 -1 -10 4 0 6 5 11 10 11 6 0
10 -2 10 -4z m91 -5 c-7 -5 -22 -6 -34 -3 -18 5 -19 2 -14 -24 5 -27 2 -31
-26 -42 -21 -8 -33 -9 -35 -2 -2 5 -10 10 -18 10 -8 0 -14 5 -14 11 0 7 11 9
26 6 22 -4 28 0 37 24 10 25 16 29 52 29 26 0 35 -3 26 -9z m4230 -11 c13 -10
19 -19 12 -20 -6 0 -15 5 -18 10 -14 23 -35 9 -35 -24 0 -24 -7 -38 -24 -52
-14 -10 -23 -21 -21 -25 3 -3 -9 -9 -25 -13 -17 -3 -30 -11 -30 -17 0 -14 70
-3 108 17 15 8 33 14 40 14 14 0 16 36 2 45 -6 4 -5 11 3 20 10 11 15 10 29
-8 19 -24 23 -47 9 -47 -5 0 -12 6 -15 13 -4 6 -4 2 -2 -10 3 -19 -2 -25 -37
-35 -23 -6 -47 -15 -54 -20 -6 -5 -62 -13 -125 -19 -121 -10 -133 -12 -162
-24 -11 -5 -26 -3 -38 4 -10 6 -23 9 -28 6 -6 -4 -10 -2 -10 2 0 5 39 17 88
27 104 23 106 24 91 42 -9 11 -8 14 5 14 9 0 16 -4 16 -10 0 -15 26 -12 39 4
6 7 25 16 42 20 18 3 28 10 24 16 -4 6 -19 9 -33 6 -15 -3 -47 -10 -72 -15
-25 -5 -48 -7 -52 -5 -14 9 -8 21 17 32 21 10 23 9 19 -6 -2 -9 1 -6 8 8 17
34 26 39 67 35 40 -4 111 13 111 27 0 14 27 9 51 -12z m-817 -39 c-6 -6 -24
19 -24 34 1 6 7 1 15 -9 8 -11 12 -22 9 -25z m40 33 c9 -3 16 -13 16 -21 0
-20 -34 -12 -38 10 -4 19 -1 20 22 11z m121 -4 c3 -5 -1 -10 -9 -10 -9 0 -16
5 -16 10 0 6 4 10 9 10 6 0 13 -4 16 -10z m-1280 -64 c-7 -35 -25 -51 -25 -21
0 8 -5 15 -10 15 -6 0 -3 14 6 31 20 40 38 25 29 -25z m1495 50 c0 -2 -7 -7
-16 -10 -8 -3 -12 -2 -9 4 6 10 25 14 25 6z m-3944 -33 c-11 -11 -66 -12 -66
-2 0 5 17 9 37 9 20 0 33 -3 29 -7z m674 0 c0 -5 -7 -16 -14 -25 -15 -20 -42
-25 -30 -6 5 8 -1 9 -22 5 -17 -3 -36 -2 -44 4 -11 6 -1 9 32 9 26 0 50 5 53
10 7 12 25 13 25 3z m2971 -124 c17 -22 42 -42 55 -45 25 -7 33 -24 10 -24
-44 0 -126 91 -126 140 0 42 14 45 23 5 4 -21 21 -55 38 -76z m-3751 76 c-7
-9 -15 -13 -19 -10 -3 3 1 10 9 15 21 14 24 12 10 -5z m150 6 c0 -5 -18 -16
-40 -25 -47 -18 -53 -19 -45 -7 3 5 0 13 -7 17 -8 5 -6 10 8 15 27 11 84 11
84 0z m220 -31 c0 -5 -11 -10 -25 -10 -14 0 -25 5 -25 10 0 6 11 10 25 10 14
0 25 -4 25 -10z m537 -82 c-2 -13 -4 -5 -4 17 -1 22 1 32 4 23 2 -10 2 -28 0
-40z m2548 22 c-16 -18 -35 -19 -35 -2 0 8 43 30 49 25 2 -2 -4 -12 -14 -23z
m45 20 c0 -5 -5 -10 -11 -10 -5 0 -7 5 -4 10 3 6 8 10 11 10 2 0 4 -4 4 -10z
m-850 -36 l25 -15 -33 6 c-27 6 -33 3 -41 -17 -10 -22 -10 -22 -10 5 -1 16 3
26 9 22 6 -3 10 -1 10 4 0 15 10 13 40 -5z m1630 -3 c0 -8 -73 -18 -182 -26
-47 -3 -70 7 -47 21 6 3 15 0 20 -7 6 -9 9 -10 9 -2 0 7 15 10 43 8 23 -1 62
1 87 5 65 11 70 11 70 1z m-3560 -5 c0 -3 -4 -8 -10 -11 -5 -3 -10 -1 -10 4 0
6 5 11 10 11 6 0 10 -2 10 -4z m3056 -46 c8 0 14 -4 14 -10 0 -25 -54 0 -71
32 l-12 21 28 -21 c15 -12 34 -22 41 -22z m-3092 6 c-5 -14 -62 -46 -82 -46
-5 0 -15 -7 -22 -15 -7 -8 -19 -15 -26 -15 -30 0 11 40 66 64 65 29 71 30 64
12z m1927 -28 c-3 -21 -6 -26 -9 -15 -3 17 3 47 11 47 2 0 1 -15 -2 -32z
m1199 -63 c0 -9 -6 -12 -15 -9 -8 4 -15 10 -15 15 0 5 7 9 15 9 8 0 15 -7 15
-15z m-3290 -4 c0 -12 -18 -18 -83 -26 -38 -5 -57 -4 -57 3 0 6 21 14 48 17
26 3 54 8 62 9 27 6 30 6 30 -3z m4027 -43 c-3 -7 -5 -2 -5 12 0 14 2 19 5 13
2 -7 2 -19 0 -25z m-4507 12 c0 -5 -10 -10 -22 -10 -19 0 -20 2 -8 10 19 13
30 13 30 0z m315 -10 c3 -5 -1 -10 -9 -10 -9 0 -16 5 -16 10 0 6 4 10 9 10 6
0 13 -4 16 -10z m2645 -122 c20 -6 17 -7 -13 -4 -35 5 -38 3 -35 -17 2 -12 12
-27 23 -34 19 -12 18 -12 -7 -13 -18 0 -28 5 -28 14 0 8 -7 17 -17 20 -14 6
-14 8 3 21 11 8 14 15 7 15 -7 0 -13 5 -13 10 0 10 27 6 80 -12z m-845 -108
c28 -15 49 -33 48 -39 -2 -6 4 -11 13 -11 8 0 13 4 9 9 -3 5 0 13 6 17 8 5 9
-3 3 -27 -4 -19 -6 -54 -4 -79 7 -100 5 -107 -38 -154 -23 -25 -42 -48 -42
-51 0 -2 12 -2 28 1 44 8 57 -7 37 -46 -9 -17 -14 -38 -11 -45 3 -8 -6 -15
-25 -19 -28 -5 -29 -8 -29 -61 l0 -56 -62 3 -63 3 3 66 c3 41 0 69 -7 73 -6 4
-11 14 -11 22 0 12 7 14 29 9 17 -3 32 -2 36 4 4 7 -4 11 -21 11 -20 0 -24 3
-17 13 6 6 10 27 10 45 0 20 7 38 19 47 15 12 16 16 5 24 -13 9 -16 42 -25
252 l-3 97 31 -40 c17 -22 54 -53 81 -68z m-1750 70 c-3 -5 -19 -10 -35 -10
-15 0 -30 -6 -33 -12 -2 -7 -8 -10 -12 -6 -4 4 -2 14 5 23 14 17 85 21 75 5z
m3125 -27 c0 -20 -3 -33 -7 -29 -11 11 -12 66 -2 66 5 0 9 -16 9 -37z m-30
-53 c0 -46 -4 -80 -10 -80 -5 0 -8 15 -6 33 2 17 4 53 5 80 2 79 11 52 11 -33z
m-460 66 c0 -3 -4 -8 -10 -11 -5 -3 -10 -1 -10 4 0 6 5 11 10 11 6 0 10 -2 10
-4z m-2210 -46 c0 -4 -8 -7 -17 -5 -10 2 -22 4 -28 5 -5 1 -1 5 10 9 21 9 35
5 35 -9z m2697 -72 c-2 -13 -4 -3 -4 22 0 25 2 35 4 23 2 -13 2 -33 0 -45z
m-1510 -20 c-3 -7 -5 -2 -5 12 0 14 2 19 5 13 2 -7 2 -19 0 -25z m-1541 -35
c-10 -10 -19 5 -10 18 6 11 8 11 12 0 2 -7 1 -15 -2 -18z m3044 -28 c0 -25 -4
-45 -10 -45 -5 0 -10 20 -10 45 0 25 5 45 10 45 6 0 10 -20 10 -45z m-2525 24
c4 -6 0 -16 -9 -22 -10 -8 -14 -20 -10 -35 6 -21 7 -21 20 -5 12 16 15 16 24
3 22 -34 8 -51 -45 -56 -28 -2 -32 1 -28 17 4 15 1 18 -11 13 -20 -8 -21 9 -1
26 12 10 15 10 16 -1 1 -15 20 37 21 59 2 15 14 16 23 1z m-260 -9 c-3 -5 -13
-10 -21 -10 -8 0 -14 5 -14 10 0 6 9 10 21 10 11 0 17 -4 14 -10z m2751 -57
c-3 -6 0 -14 7 -16 7 -2 8 -8 4 -13 -13 -14 -27 18 -26 61 1 40 1 40 10 10 5
-16 7 -35 5 -42z m-2833 40 c-7 -2 -19 -2 -25 0 -7 3 -2 5 12 5 14 0 19 -2 13
-5z m-56 -9 c-3 -3 -12 -4 -19 -1 -8 3 -5 6 6 6 11 1 17 -2 13 -5z m1435 -57
c-6 -23 -8 -20 -16 28 -6 38 -6 39 7 15 7 -14 11 -33 9 -43z m2003 -107 c-11
-17 -75 -40 -195 -70 -203 -51 -510 -87 -510 -61 0 9 32 14 170 26 66 5 229
33 355 59 55 12 130 34 183 55 2 0 0 -4 -3 -9z m-3205 -20 c0 -5 -4 -10 -9
-10 -5 0 -11 -8 -15 -17 -7 -21 -76 -131 -76 -122 0 17 23 69 31 69 5 0 9 5 9
12 0 15 42 78 53 78 4 0 7 -4 7 -10z m4357 -56 c-3 -3 -12 -4 -19 -1 -8 3 -5
6 6 6 11 1 17 -2 13 -5z m-4473 -128 c-3 -14 -10 -26 -15 -26 -5 0 -6 -7 -3
-15 4 -8 2 -15 -4 -15 -5 0 -13 -11 -16 -25 -4 -14 -11 -25 -16 -25 -14 0 -13
5 10 47 11 21 20 44 20 51 0 13 22 43 28 37 2 -1 0 -14 -4 -29z m103 12 c5 14
53 16 53 2 0 -6 -12 -15 -27 -21 -16 -7 -38 -16 -50 -21 -11 -6 -26 -8 -31 -4
-6 3 -18 -2 -28 -11 -17 -17 -18 -17 -11 0 4 10 7 23 7 28 0 5 9 9 20 9 11 0
23 7 26 15 5 13 9 13 22 3 12 -10 16 -10 19 0z m113 -29 c0 -5 -4 -9 -10 -9
-5 0 -10 7 -10 16 0 8 5 12 10 9 6 -3 10 -10 10 -16z m1163 -76 c-15 -23 -33
-31 -33 -14 0 5 7 14 15 21 8 7 15 20 15 29 0 13 2 14 9 2 6 -9 4 -23 -6 -38z
m1219 -94 c-2 -78 -5 -140 -6 -138 -2 2 -7 40 -10 84 -3 44 -8 92 -11 108 -4
21 17 87 28 87 1 0 1 -63 -1 -141z m-2662 121 c0 -5 -10 -10 -22 -9 -22 0 -22
1 -3 9 11 5 21 9 23 9 1 1 2 -3 2 -9z m164 -14 c25 -17 32 -26 22 -29 -8 -3
-26 3 -41 15 -18 14 -33 18 -52 13 -23 -5 -25 -4 -14 9 19 22 44 20 85 -8z
m-89 -54 c-2 -2 -11 2 -19 11 -8 8 -12 18 -8 21 3 4 12 -1 19 -10 7 -10 11
-20 8 -22z m45 28 c0 -5 -2 -10 -4 -10 -3 0 -8 5 -11 10 -3 6 -1 10 4 10 6 0
11 -4 11 -10z m-140 -63 c-18 -28 -20 -29 -14 -7 4 14 11 27 15 28 5 2 9 11
10 20 0 11 2 12 6 4 2 -7 -5 -27 -17 -45z m1385 32 c-18 -5 -33 -5 -39 1 -7 7
4 10 30 9 39 -1 39 -1 9 -10z m95 1 c0 -5 -5 -10 -11 -10 -5 0 -7 5 -4 10 3 6
8 10 11 10 2 0 4 -4 4 -10z m-1259 -22 c24 -27 27 -57 4 -38 -8 7 -15 17 -15
23 0 5 -8 16 -17 23 -13 10 -14 13 -4 14 7 0 22 -10 32 -22z m-184 -28 c-1
-20 -8 -25 -20 -14 -3 3 0 12 6 20 16 17 16 17 14 -6z m2420 3 c-33 -4 -37 -7
-32 -24 4 -11 2 -26 -5 -33 -6 -8 -12 -31 -14 -52 -2 -25 -9 -39 -17 -39 -16
0 -13 48 2 53 5 2 6 15 3 28 -5 18 -2 24 10 24 12 0 15 6 10 25 -6 24 -4 25
37 23 l44 -1 -38 -4z m27 -32 c-5 -3 -10 -22 -12 -41 -4 -42 -21 -100 -35
-117 -5 -7 -18 -13 -29 -13 -10 0 -17 -4 -13 -10 3 -5 12 -7 19 -4 8 3 17 -2
20 -13 12 -40 27 -228 21 -267 -15 -106 -28 -166 -35 -166 -9 0 -22 55 -39
160 -5 30 -17 75 -26 100 -15 43 -12 101 11 218 4 22 44 33 44 11 0 -5 5 -7
10 -4 6 4 8 11 5 16 -4 5 -2 9 4 9 5 0 13 21 16 48 8 56 24 94 38 85 5 -3 5
-8 1 -12z m-2512 -19 c-7 -2 -12 -8 -12 -14 0 -5 -9 -21 -20 -35 -11 -14 -20
-21 -20 -15 0 6 5 14 10 17 6 4 8 11 5 16 -4 5 -2 9 3 9 5 0 15 12 22 28 9 19
14 23 18 13 3 -8 0 -17 -6 -19z m-382 8 c12 -8 9 -10 -12 -10 -16 0 -28 5 -28
10 0 13 20 13 40 0z m515 0 c-3 -5 -12 -10 -18 -10 -7 0 -6 4 3 10 19 12 23
12 15 0z m-40 -10 c-3 -5 -12 -10 -18 -10 -7 0 -6 4 3 10 19 12 23 12 15 0z
m-72 -46 c-9 -15 -19 -22 -21 -16 -2 6 3 18 10 26 22 25 30 18 11 -10z m-215
-21 c-10 -2 -28 -2 -40 0 -13 2 -5 4 17 4 22 1 32 -1 23 -4z m4510 -167 c1
-169 17 -252 71 -368 32 -67 37 -93 22 -102 -5 -3 -18 -23 -29 -44 -14 -27
-17 -44 -10 -61 7 -19 3 -28 -17 -47 -14 -13 -30 -24 -35 -24 -4 0 -10 -5 -12
-11 -2 -5 -11 -7 -21 -3 -16 6 -14 9 13 22 43 21 22 32 -64 32 -77 0 -81 6
-15 19 71 14 -198 13 -311 -1 -94 -11 -170 -6 -170 12 0 6 17 10 39 10 43 0
177 26 202 40 25 13 129 30 169 26 33 -2 133 20 193 43 27 11 28 14 22 54 -4
23 -16 62 -26 86 -10 24 -19 50 -19 57 0 8 -7 14 -15 14 -13 0 -15 21 -15 128
0 156 10 297 21 281 4 -7 7 -80 7 -163z m-1773 126 c-15 -16 -16 -15 -4 12 7
15 15 23 17 16 3 -7 -3 -19 -13 -28z m-415 13 c0 -8 -4 -15 -10 -15 -5 0 -10
7 -10 15 0 8 5 15 10 15 6 0 10 -7 10 -15z m200 -19 c0 -3 -10 -10 -21 -17
-17 -9 -20 -8 -13 3 6 11 5 11 -9 -1 -9 -7 -17 -20 -17 -28 0 -16 29 -14 73 2
9 4 17 3 17 -3 0 -10 -95 -32 -137 -32 -14 0 -21 4 -18 10 3 6 17 10 31 10 29
0 33 26 4 35 -35 11 -22 20 35 23 30 2 55 1 55 -2z m1102 -92 c29 -7 65 -14
81 -14 23 0 27 -4 27 -28 0 -22 -7 -32 -32 -45 l-33 -16 31 0 c23 -1 33 -7 37
-21 5 -18 0 -20 -51 -20 -40 1 -77 9 -122 29 -55 23 -65 32 -68 55 -3 27 -3
27 45 21 l48 -6 -47 23 c-40 18 -48 26 -48 49 l0 26 39 -19 c22 -11 64 -26 93
-34z m-695 -126 c-2 -24 -4 -5 -4 42 0 47 2 66 4 43 2 -24 2 -62 0 -85z
m-2657 108 c0 -3 -4 -8 -10 -11 -5 -3 -10 -1 -10 4 0 6 5 11 10 11 6 0 10 -2
10 -4z m-200 -26 c0 -5 -4 -10 -10 -10 -5 0 -10 5 -10 10 0 6 5 10 10 10 6 0
10 -4 10 -10z m380 0 c0 -5 -4 -10 -10 -10 -5 0 -10 5 -10 10 0 6 5 10 10 10
6 0 10 -4 10 -10z m-449 -113 c-11 -17 -21 -27 -21 -20 0 6 5 15 10 18 15 9
12 25 -6 25 -8 0 -13 4 -9 10 3 5 12 7 20 3 9 -3 15 1 16 8 0 11 2 11 6 1 2
-7 -5 -27 -16 -45z m-21 -43 c0 -3 -7 -12 -15 -20 -16 -17 -18 -14 -9 10 6 15
24 23 24 10z m1550 -19 c0 -8 -4 -15 -10 -15 -5 0 -10 7 -10 15 0 8 5 15 10
15 6 0 10 -7 10 -15z m-1063 -21 c-3 -3 -12 -4 -19 -1 -8 3 -5 6 6 6 11 1 17
-2 13 -5z m-533 -43 c-10 -17 -22 -31 -26 -31 -4 0 2 16 14 35 11 20 23 34 25
31 3 -2 -3 -18 -13 -35z m2204 6 c-1 -18 6 -48 15 -66 28 -55 20 -96 -17 -96
-17 0 -19 8 -17 90 1 49 5 93 7 97 10 16 15 7 12 -25z m-1624 -32 c-9 -14 -18
-25 -20 -25 -2 0 -4 11 -4 25 0 18 5 25 20 25 20 0 20 -1 4 -25z m-623 -52
c-12 -20 -14 -14 -5 12 4 9 9 14 11 11 3 -2 0 -13 -6 -23z m644 -73 c-11 -4
-23 -3 -27 3 -12 19 2 28 25 15 21 -11 21 -11 2 -18z m-681 -4 c-3 -9 -10 -16
-15 -16 -5 0 -4 9 3 20 14 22 21 20 12 -4z m2634 2 c7 -7 12 -16 12 -22 0 -5
-6 -2 -13 9 -9 11 -19 15 -27 10 -9 -5 -11 -4 -6 3 9 15 19 15 34 0z m472 -88
c0 -17 -36 -47 -46 -38 -3 4 36 58 43 58 2 0 3 -9 3 -20z m-3162 -20 c-15 -24
-19 -21 -11 8 3 12 9 19 14 16 5 -3 3 -14 -3 -24z m687 -39 c3 -6 -3 -9 -14
-8 -11 0 -17 5 -15 9 7 11 22 10 29 -1z m3420 -1 c7 -12 -12 -12 -40 0 -18 8
-17 9 7 9 15 1 30 -3 33 -9z m-1025 -29 c0 -5 -7 -11 -15 -15 -9 -3 -15 0 -15
9 0 8 7 15 15 15 8 0 15 -4 15 -9z m35 -10 c-3 -6 -11 -11 -17 -11 -6 0 -6 6
2 15 14 17 26 13 15 -4z m-2388 -38 c-3 -10 -5 -2 -5 17 0 19 2 27 5 18 2 -10
2 -26 0 -35z m2103 25 c0 -18 -2 -20 -9 -8 -6 8 -7 18 -5 22 9 14 14 9 14 -14z
m325 2 c-3 -5 -11 -10 -16 -10 -6 0 -7 5 -4 10 3 6 11 10 16 10 6 0 7 -4 4
-10z m1520 -20 c3 -5 -1 -10 -9 -10 -9 0 -16 5 -16 10 0 6 4 10 9 10 6 0 13
-4 16 -10z m-4755 -25 c-7 -9 -15 -13 -17 -11 -6 6 20 36 26 30 2 -2 -2 -10
-9 -19z m3137 0 c-14 -29 -39 -43 -30 -17 8 22 24 42 33 42 5 0 3 -11 -3 -25z
m-60 -17 c-8 -24 -12 -28 -15 -15 -2 10 2 24 8 32 19 22 20 18 7 -17z m99 -5
c-11 -11 -17 4 -9 23 7 18 8 18 11 1 2 -10 1 -21 -2 -24z"/>
<path d="M3390 4369 c0 -5 5 -7 10 -4 6 3 10 8 10 11 0 2 -4 4 -10 4 -5 0 -10
-5 -10 -11z"/>
<path d="M3152 4131 c6 -81 18 -90 18 -13 0 33 -5 64 -11 68 -7 4 -9 -13 -7
-55z"/>
<path d="M3392 3900 c0 -14 2 -19 5 -12 2 6 2 18 0 25 -3 6 -5 1 -5 -13z"/>
<path d="M670 3904 l-25 -15 25 7 c28 7 35 12 29 18 -2 2 -15 -2 -29 -10z"/>
<path d="M3705 3570 c3 -5 8 -10 11 -10 2 0 4 5 4 10 0 6 -5 10 -11 10 -5 0
-7 -4 -4 -10z"/>
<path d="M5355 3399 c-6 -19 7 -38 26 -39 14 0 31 31 25 45 -8 23 -44 18 -51
-6z m29 -14 c-4 -8 -8 -15 -10 -15 -2 0 -4 7 -4 15 0 8 4 15 10 15 5 0 7 -7 4
-15z"/>
<path d="M2326 3044 c-4 -10 -1 -14 6 -12 15 5 23 28 10 28 -5 0 -13 -7 -16
-16z"/>
<path d="M1118 3103 c-24 -6 -23 -29 2 -36 16 -4 20 0 20 19 0 13 -1 23 -2 23
-2 -1 -11 -3 -20 -6z"/>
<path d="M1520 2931 c0 -6 8 -11 18 -12 11 0 7 -4 -10 -11 -38 -13 -35 -22 13
-35 39 -10 41 -9 50 15 12 30 4 39 -39 48 -21 4 -32 3 -32 -5z"/>
<path d="M1390 2897 c0 -12 26 -30 65 -45 6 -2 -5 10 -23 27 -37 35 -42 37
-42 18z"/>
<path d="M1155 2840 c3 -5 17 -10 31 -10 13 0 24 5 24 10 0 6 -14 10 -31 10
-17 0 -28 -4 -24 -10z"/>
<path d="M1247 2839 c8 -8 16 -8 30 0 16 9 14 10 -11 11 -22 0 -27 -3 -19 -11z"/>
<path d="M1650 2811 c0 -10 30 -24 37 -17 3 3 2 9 -2 15 -8 13 -35 15 -35 2z"/>
<path d="M1023 2803 c15 -2 37 -2 50 0 12 2 0 4 -28 4 -27 0 -38 -2 -22 -4z"/>
<path d="M1420 2800 c0 -5 5 -10 11 -10 5 0 7 5 4 10 -3 6 -8 10 -11 10 -2 0
-4 -4 -4 -10z"/>
<path d="M1695 2730 c-18 -20 -18 -21 5 -12 13 5 26 14 28 20 6 19 -13 14 -33
-8z"/>
<path d="M1751 2724 c-7 -8 -10 -18 -7 -21 3 -3 1 -12 -6 -20 -6 -7 -8 -16 -5
-20 11 -10 -14 -33 -34 -33 -11 0 -19 -7 -19 -15 0 -18 -41 -20 -71 -5 -33 18
-21 -5 20 -38 44 -35 56 -40 48 -18 -5 13 65 86 82 86 10 0 47 52 55 78 12 37
-11 25 -38 -20 -27 -45 -36 -42 -11 2 23 41 15 56 -14 24z"/>
<path d="M1700 2679 c0 -5 5 -7 10 -4 6 3 10 8 10 11 0 2 -4 4 -10 4 -5 0 -10
-5 -10 -11z"/>
<path d="M1546 2586 c3 -8 6 -80 7 -161 l2 -146 -22 6 c-17 4 -21 2 -17 -10 4
-8 14 -14 23 -13 12 2 16 -5 16 -27 0 -16 -4 -38 -8 -48 -4 -9 -4 -23 0 -30 4
-6 6 -20 5 -29 -2 -10 1 -18 7 -18 5 0 11 -10 13 -22 4 -28 57 -44 112 -34 32
6 37 11 33 27 -4 15 1 23 19 29 26 10 32 47 15 93 -11 28 -90 70 -107 56 -6
-5 -14 -6 -17 -2 -4 3 -13 1 -21 -6 -11 -9 -15 -7 -18 13 -3 14 -1 27 5 29 6
2 6 10 -1 23 -7 13 -8 56 -5 117 4 64 2 101 -5 110 -6 7 -9 23 -5 35 4 17 1
22 -16 22 -13 0 -19 -5 -15 -14z"/>
<path d="M1722 2588 c-7 -9 -7 -31 0 -68 11 -63 31 -100 54 -100 12 0 15 6 11
23 -19 80 -18 83 5 95 22 12 22 12 -4 7 -28 -5 -34 4 -29 43 1 6 -5 12 -12 12
-8 0 -19 -6 -25 -12z"/>
<path d="M2063 2335 c0 -22 2 -30 4 -17 2 12 2 30 0 40 -3 9 -5 -1 -4 -23z"/>
<path d="M2132 2330 c0 -19 2 -27 5 -17 2 9 2 25 0 35 -3 9 -5 1 -5 -18z"/>
<path d="M1624 2324 c3 -9 6 -18 6 -20 0 -3 5 -2 10 1 16 10 12 35 -6 35 -11
0 -14 -5 -10 -16z"/>
<path d="M1687 2324 c-8 -8 1 -24 14 -24 5 0 9 7 9 15 0 15 -12 20 -23 9z"/>
<path d="M1757 2293 c-14 -13 -6 -21 16 -15 19 5 20 3 9 -10 -8 -10 -9 -19 -4
-22 6 -3 15 1 22 9 11 13 10 18 -6 30 -22 16 -28 18 -37 8z"/>
<path d="M2113 2251 c-7 -22 -13 -51 -12 -63 1 -15 6 -7 15 22 8 25 13 53 12
63 -2 11 -8 2 -15 -22z"/>
<path d="M1480 2231 c0 -5 7 -11 15 -15 9 -3 15 0 15 9 0 8 -7 15 -15 15 -8 0
-15 -4 -15 -9z"/>
<path d="M1253 2170 c12 -44 27 -53 27 -16 0 34 -10 56 -25 56 -9 0 -10 -9 -2
-40z"/>
<path d="M1790 2074 c0 -9 5 -14 12 -12 18 6 21 28 4 28 -9 0 -16 -7 -16 -16z"/>
<path d="M1507 2064 c-8 -8 1 -24 14 -24 5 0 9 7 9 15 0 15 -12 20 -23 9z"/>
<path d="M1756 2042 c-2 -4 -1 -14 4 -22 7 -11 12 -12 21 -3 6 6 8 16 5 22 -8
13 -23 14 -30 3z"/>
<path d="M1260 2006 c0 -17 -8 -27 -32 -36 -71 -26 -79 -30 -73 -40 3 -6 14
-10 23 -10 9 -1 28 -7 41 -14 23 -13 23 -13 2 -19 -21 -5 -30 -36 -11 -38 6
-1 15 -3 20 -4 6 -1 15 -3 21 -4 6 0 8 -9 5 -19 -5 -14 3 -22 29 -35 19 -9 35
-23 35 -32 0 -8 5 -15 11 -15 6 0 9 3 7 8 -2 4 -12 24 -21 44 -9 20 -21 39
-26 42 -4 3 -6 16 -4 30 4 17 -2 28 -18 40 -22 15 -23 16 -6 51 19 40 22 75 7
75 -5 0 -10 -11 -10 -24z"/>
<path d="M1546 2021 c-4 -7 -5 -15 -2 -18 9 -9 19 4 14 18 -4 11 -6 11 -12 0z"/>
<path d="M1710 2006 c0 -15 18 -31 26 -23 7 7 -7 37 -17 37 -5 0 -9 -6 -9 -14z"/>
<path d="M1602 1989 c2 -6 8 -10 13 -10 5 0 11 4 13 10 2 6 -4 11 -13 11 -9 0
-15 -5 -13 -11z"/>
<path d="M1657 1980 c3 -11 9 -17 14 -14 14 8 10 34 -5 34 -9 0 -12 -7 -9 -20z"/>
<path d="M1882 1885 c0 -16 2 -22 5 -12 2 9 2 23 0 30 -3 6 -5 -1 -5 -18z"/>
<path d="M1884 1785 c-4 -9 0 -38 10 -64 9 -25 16 -54 16 -63 0 -10 4 -18 10
-18 5 0 15 -12 23 -26 l13 -25 12 27 c11 23 11 26 -3 20 -10 -3 -14 -2 -9 5 6
10 -40 134 -57 153 -5 5 -11 2 -15 -9z"/>
<path d="M1350 1739 c0 -5 5 -7 10 -4 6 3 10 8 10 11 0 2 -4 4 -10 4 -5 0 -10
-5 -10 -11z"/>
<path d="M1348 1715 c-14 -14 5 -35 38 -41 43 -8 52 -21 22 -33 -28 -11 -50
-35 -72 -80 -23 -48 -20 -72 12 -108 26 -31 28 -32 81 -23 65 11 93 35 109 95
9 36 9 49 -1 66 -13 21 -82 69 -132 91 -16 7 -35 19 -40 26 -6 7 -13 10 -17 7z
m116 -131 c3 -8 15 -14 26 -14 11 0 20 -4 20 -10 0 -17 -35 -11 -51 8 -26 31
-31 42 -15 36 8 -3 17 -12 20 -20z m-98 -36 c-3 -13 -6 -34 -6 -48 -1 -22 -2
-23 -11 -7 -12 20 -2 77 13 77 6 0 8 -10 4 -22z"/>
<path d="M1241 1556 c-1 -37 2 -47 10 -39 8 8 8 22 1 50 l-10 38 -1 -49z"/>
<path d="M1193 1345 c0 -33 2 -45 4 -27 2 18 2 45 0 60 -2 15 -4 0 -4 -33z"/>
<path d="M1700 1340 c0 -5 5 -10 10 -10 6 0 10 5 10 10 0 6 -4 10 -10 10 -5 0
-10 -4 -10 -10z"/>
<path d="M1105 1120 c-3 -5 1 -10 10 -10 9 0 13 5 10 10 -3 6 -8 10 -10 10 -2
0 -7 -4 -10 -10z"/>
<path d="M1176 771 c-4 -7 -5 -15 -2 -18 9 -9 19 4 14 18 -4 11 -6 11 -12 0z"/>
<path d="M1145 760 c-3 -5 -1 -10 4 -10 6 0 11 5 11 10 0 6 -2 10 -4 10 -3 0
-8 -4 -11 -10z"/>
<path d="M1105 750 c4 -6 11 -8 16 -5 14 9 11 15 -7 15 -8 0 -12 -5 -9 -10z"/>
<path d="M1095 550 c-17 -8 -17 -9 7 -7 15 1 24 5 22 9 -3 4 -6 8 -7 7 -1 0
-11 -4 -22 -9z"/>
<path d="M1102 495 c0 -16 2 -22 5 -12 2 9 2 23 0 30 -3 6 -5 -1 -5 -18z"/>
<path d="M2560 2900 c0 -5 7 -10 16 -10 8 0 12 5 9 10 -3 6 -10 10 -16 10 -5
0 -9 -4 -9 -10z"/>
<path d="M2723 2593 c9 -2 23 -2 30 0 6 3 -1 5 -18 5 -16 0 -22 -2 -12 -5z"/>
<path d="M2570 2560 c0 -8 5 -22 10 -30 9 -13 10 -13 10 0 0 8 -5 22 -10 30
-9 13 -10 13 -10 0z"/>
<path d="M2732 2560 c-18 -4 -36 -11 -39 -14 -14 -13 16 -27 52 -24 32 2 39 7
40 26 2 23 -2 24 -53 12z m35 -22 c-3 -8 -6 -5 -6 6 -1 11 2 17 5 13 3 -3 4
-12 1 -19z"/>
<path d="M2920 2455 c0 -8 -3 -14 -7 -13 -5 1 -21 -4 -36 -10 -42 -17 -107
-16 -107 3 0 9 -6 12 -15 8 -9 -3 -15 -12 -13 -21 3 -16 16 -19 103 -29 28 -3
54 -11 58 -19 4 -8 12 -14 16 -14 12 0 21 39 10 46 -5 3 -2 12 6 20 19 20 19
44 0 44 -8 0 -15 -7 -15 -15z"/>
<path d="M2160 1370 c0 -5 5 -10 11 -10 5 0 7 5 4 10 -3 6 -8 10 -11 10 -2 0
-4 -4 -4 -10z"/>
<path d="M4975 200 c-3 -5 -1 -10 4 -10 6 0 11 5 11 10 0 6 -2 10 -4 10 -3 0
-8 -4 -11 -10z"/>
<path d="M4765 180 c3 -5 13 -10 21 -10 8 0 12 5 9 10 -3 6 -13 10 -21 10 -8
0 -12 -4 -9 -10z"/>
<path d="M4970 146 c0 -15 24 -28 34 -19 5 6 -18 33 -28 33 -3 0 -6 -6 -6 -14z"/>
<path d="M2647 331 c-4 -17 -3 -21 5 -13 5 5 8 16 6 23 -3 8 -7 3 -11 -10z"/>
<path d="M3463 5148 c2 -7 11 -11 18 -8 8 2 58 5 111 5 54 1 101 4 105 8 3 4
-49 7 -116 7 -94 0 -122 -3 -118 -12z"/>
<path d="M3720 5153 c51 -20 19 -53 -49 -52 -45 1 -74 -5 -60 -13 2 -2 94 -1
204 2 110 3 164 7 120 9 -139 5 -168 9 -176 23 -5 7 -9 16 -9 19 0 4 196 7
435 8 281 0 435 -3 435 -9 0 -6 -21 -11 -47 -12 l-48 -1 45 -4 c50 -4 70 -22
70 -65 0 -15 9 -37 21 -49 17 -17 20 -28 14 -69 -4 -29 -2 -56 4 -69 6 -11 12
-39 14 -61 2 -44 -7 -42 91 -24 39 7 38 1 50 229 3 50 6 94 6 98 0 5 5 5 10 2
6 -3 10 -24 10 -46 l0 -40 30 34 c17 20 30 46 30 61 l0 26 155 0 155 0 0 -124
c0 -101 3 -125 15 -130 13 -5 15 13 15 124 l0 130 333 3 332 2 -337 3 -337 2
-4 -22 -4 -23 -2 23 c-1 22 -2 22 -159 22 -87 0 -162 -3 -165 -7 -4 -3 -35 -7
-69 -7 l-63 -2 -6 -39 -6 -40 -2 43 -1 43 -57 1 c-301 5 -1005 5 -993 1z
m1527 -85 c-3 -7 -5 -2 -5 12 0 14 2 19 5 13 2 -7 2 -19 0 -25z m-470 -45 c-3
-10 -5 -4 -5 12 0 17 2 24 5 18 2 -7 2 -21 0 -30z m-15 -165 c-11 -11 -15 78
-4 107 5 13 8 0 10 -39 2 -32 -1 -63 -6 -68z"/>
<path d="M3700 5120 c0 -5 5 -10 10 -10 6 0 10 5 10 10 0 6 -4 10 -10 10 -5 0
-10 -4 -10 -10z"/>
<path d="M4082 5122 c-7 -2 -10 -8 -6 -13 7 -12 61 -12 68 0 6 9 -43 20 -62
13z"/>
<path d="M2928 5113 c7 -3 16 -2 19 1 4 3 -2 6 -13 5 -11 0 -14 -3 -6 -6z"/>
<path d="M2968 5113 c6 -2 18 -2 25 0 6 3 1 5 -13 5 -14 0 -19 -2 -12 -5z"/>
<path d="M3030 5110 c13 -8 13 -9 0 -14 -44 -14 -45 -14 -25 -17 11 -1 -2 -5
-30 -9 l-50 -7 58 -1 c40 -2 63 3 73 13 10 9 24 13 40 9 13 -3 34 -6 46 -5 13
0 40 1 61 2 52 1 42 24 -11 25 -30 1 -42 -3 -42 -13 0 -12 -4 -12 -22 1 -12 9
-31 13 -45 10 -14 -4 -23 -2 -23 5 0 6 -10 11 -22 11 -18 0 -20 -2 -8 -10z"/>
<path d="M3310 5108 c0 -9 23 -12 58 -9 13 1 30 -4 39 -10 11 -10 16 -10 22 0
9 13 32 11 43 -4 4 -5 10 -6 15 -2 11 12 -18 27 -57 28 -92 4 -120 3 -120 -3z"/>
<path d="M4235 5110 l-80 -6 112 -2 c66 -1 114 2 118 8 7 11 -15 11 -150 0z"/>
<path d="M2880 5100 c-8 -5 -12 -11 -9 -14 2 -3 11 -1 19 4 8 5 12 11 9 14 -2
3 -11 1 -19 -4z"/>
<path d="M3500 5100 c0 -5 5 -10 10 -10 6 0 10 5 10 10 0 6 -4 10 -10 10 -5 0
-10 -4 -10 -10z"/>
<path d="M2928 5083 c7 -3 16 -2 19 1 4 3 -2 6 -13 5 -11 0 -14 -3 -6 -6z"/>
<path d="M1530 5039 c0 -5 5 -7 10 -4 6 3 10 8 10 11 0 2 -4 4 -10 4 -5 0 -10
-5 -10 -11z"/>
<path d="M1993 5033 c9 -2 23 -2 30 0 6 3 -1 5 -18 5 -16 0 -22 -2 -12 -5z"/>
<path d="M2073 5033 c9 -2 23 -2 30 0 6 3 -1 5 -18 5 -16 0 -22 -2 -12 -5z"/>
<path d="M1552 5019 c2 -7 10 -15 17 -17 8 -3 12 1 9 9 -2 7 -10 15 -17 17 -8
3 -12 -1 -9 -9z"/>
<path d="M3370 5016 c0 -2 7 -7 16 -10 8 -3 12 -2 9 4 -6 10 -25 14 -25 6z"/>
<path d="M3425 5010 c-4 -6 5 -10 20 -10 15 0 24 4 20 10 -3 6 -12 10 -20 10
-8 0 -17 -4 -20 -10z"/>
<path d="M4861 4955 c0 -33 4 -78 8 -100 7 -34 9 -27 10 45 0 47 -4 92 -9 100
-7 11 -10 -3 -9 -45z"/>
<path d="M3345 4980 c3 -5 16 -10 28 -9 21 0 21 1 2 9 -28 12 -37 12 -30 0z"/>
<path d="M3430 4958 c0 -22 7 -23 26 -4 19 20 18 25 -6 23 -12 -1 -20 -8 -20
-19z"/>
<path d="M1452 4953 c-10 -4 -9 -9 4 -24 9 -10 14 -25 10 -34 -4 -13 -2 -14
14 -5 11 6 20 17 20 24 0 18 -32 44 -48 39z"/>
<path d="M1595 4930 c-3 -5 1 -10 9 -10 9 0 16 5 16 10 0 6 -4 10 -9 10 -6 0
-13 -4 -16 -10z"/>
<path d="M3470 4920 c0 -11 5 -20 10 -20 6 0 10 9 10 20 0 11 -4 20 -10 20 -5
0 -10 -9 -10 -20z"/>
<path d="M1355 4920 c-3 -5 1 -10 10 -10 9 0 13 5 10 10 -3 6 -8 10 -10 10 -2
0 -7 -4 -10 -10z"/>
<path d="M1385 4900 c-4 -6 7 -10 25 -10 18 0 29 4 25 10 -3 6 -15 10 -25 10
-10 0 -22 -4 -25 -10z"/>
<path d="M590 4891 c0 -5 9 -11 20 -14 24 -6 27 8 4 17 -21 8 -24 8 -24 -3z"/>
<path d="M5240 4863 c0 -5 5 -15 10 -23 8 -12 10 -11 10 8 0 12 -4 22 -10 22
-5 0 -10 -3 -10 -7z"/>
<path d="M40 4850 c8 -5 20 -10 25 -10 6 0 3 5 -5 10 -8 5 -19 10 -25 10 -5 0
-3 -5 5 -10z"/>
<path d="M1787 4840 c3 -11 7 -20 9 -20 2 0 4 9 4 20 0 11 -4 20 -9 20 -5 0
-7 -9 -4 -20z"/>
<path d="M1572 4790 c0 -19 2 -27 5 -17 2 9 2 25 0 35 -3 9 -5 1 -5 -18z"/>
<path d="M2711 4804 c0 -11 3 -14 6 -6 3 7 2 16 -1 19 -3 4 -6 -2 -5 -13z"/>
<path d="M5240 4796 c0 -8 5 -18 10 -21 6 -3 10 1 10 9 0 8 -4 18 -10 21 -5 3
-10 -1 -10 -9z"/>
<path d="M155 4780 c-3 -5 3 -10 14 -10 11 0 23 5 26 10 3 6 -3 10 -14 10 -11
0 -23 -4 -26 -10z"/>
<path d="M4858 4745 c-3 -3 -18 -8 -33 -11 -86 -15 -208 -107 -259 -194 -18
-32 -18 -32 3 -25 11 3 21 2 21 -3 0 -6 19 -5 48 3 129 34 153 36 133 11 -5
-7 -1 -28 9 -53 22 -49 55 -60 115 -38 42 15 36 18 -32 15 -25 -1 -43 3 -43 9
0 7 26 11 69 11 96 0 131 8 131 31 0 10 9 23 21 29 18 10 20 17 14 53 -8 48
-61 102 -143 143 -55 28 -47 25 -54 19z"/>
<path d="M5240 4731 c0 -6 5 -13 10 -16 6 -3 10 1 10 9 0 9 -4 16 -10 16 -5 0
-10 -4 -10 -9z"/>
<path d="M1801 4708 c-1 -16 -6 -28 -12 -28 -8 0 -9 -17 -4 -55 l7 -56 -61 2
c-34 1 -64 -1 -67 -4 -3 -3 -2 -43 3 -89 5 -47 6 -95 2 -109 -4 -15 -7 4 -8
48 -1 39 -5 75 -11 78 -5 3 -10 23 -10 43 -1 27 -3 33 -10 22 -5 -9 -5 -32 1
-55 4 -22 13 -121 19 -220 12 -189 21 -265 27 -230 3 19 27 72 60 138 13 25
11 31 -9 28 -9 -1 -9 4 -13 92 l-3 58 44 -3 c54 -4 58 -21 7 -29 -41 -7 -36
-11 12 -13 23 -1 29 -5 27 -18 -4 -22 7 -23 22 -3 7 10 9 47 5 113 -4 53 -8
138 -9 187 -1 50 -5 99 -10 110 -8 18 -9 17 -9 -7z m-111 -462 c0 -3 -4 -8
-10 -11 -5 -3 -10 -1 -10 4 0 6 5 11 10 11 6 0 10 -2 10 -4z m-13 -113 c-2
-16 -4 -5 -4 22 0 28 2 40 4 28 2 -13 2 -35 0 -50z"/>
<path d="M5245 4677 c-4 -10 -5 -21 -1 -24 10 -10 18 4 13 24 -4 17 -4 17 -12
0z"/>
<path d="M1190 4636 c0 -25 5 -46 10 -46 6 0 10 18 10 39 0 22 -4 43 -10 46
-6 4 -10 -12 -10 -39z"/>
<path d="M1487 4672 c-5 -7 -7 -34 -5 -60 l3 -47 -38 -3 c-27 -2 -39 1 -43 13
-5 13 -8 13 -18 2 -6 -8 -26 -17 -43 -21 l-33 -5 0 44 c0 25 -4 45 -8 45 -5 0
-8 -19 -8 -42 l1 -43 -43 -3 c-26 -2 -42 1 -38 6 3 6 0 12 -8 15 -16 7 -30
-31 -17 -47 5 -6 12 -49 16 -95 6 -72 5 -83 -7 -78 -29 11 -40 -7 -23 -39 10
-19 15 -23 15 -11 0 9 4 17 9 17 9 0 21 -95 21 -166 0 -25 5 -44 11 -44 7 0 9
16 5 48 -9 73 -11 141 -4 148 8 7 31 -34 24 -44 -3 -4 -1 -14 4 -22 17 -28 22
16 6 48 -9 17 -14 37 -13 44 2 7 2 10 0 6 -3 -5 -11 -8 -19 -8 -11 0 -14 20
-14 95 l0 95 40 0 c33 0 43 -5 51 -22 l10 -23 -5 23 c-3 18 0 22 12 20 14 -3
17 -18 20 -91 2 -70 6 -87 18 -87 8 0 13 4 10 8 -9 15 -9 172 0 174 10 3 10 1
12 -94 2 -53 5 -68 17 -68 8 0 15 -4 15 -10 0 -5 6 -10 13 -10 9 0 11 24 8 96
-2 68 0 94 8 90 6 -4 12 -35 12 -69 1 -34 5 -75 10 -92 5 -18 6 8 3 68 -4 59
-2 97 4 97 11 0 22 -71 22 -141 0 -28 5 -49 11 -49 7 0 8 23 3 69 -4 45 -2 81
6 106 11 33 10 40 -3 50 -10 7 -17 31 -19 66 -2 33 -6 49 -11 41z m-70 -249
c-2 -16 -4 -3 -4 27 0 30 2 43 4 28 2 -16 2 -40 0 -55z"/>
<path d="M1569 4661 c-1 -12 -2 -26 -3 -33 -1 -6 4 -13 11 -15 7 -3 11 7 11
27 -1 35 -17 52 -19 21z"/>
<path d="M1633 4620 c0 -25 2 -35 4 -22 2 12 2 32 0 45 -2 12 -4 2 -4 -23z"/>
<path d="M176 4628 c7 -11 112 -10 119 1 3 6 -20 9 -59 8 -35 -1 -62 -5 -60
-9z"/>
<path d="M1391 4614 c0 -11 3 -14 6 -6 3 7 2 16 -1 19 -3 4 -6 -2 -5 -13z"/>
<path d="M5240 4616 c0 -9 5 -16 10 -16 6 0 10 4 10 9 0 6 -4 13 -10 16 -5 3
-10 -1 -10 -9z"/>
<path d="M2199 4585 c-3 -2 -81 -6 -174 -9 -94 -2 -173 -5 -176 -5 -9 -1 1
-174 10 -184 15 -16 99 -11 137 8 82 42 257 195 223 195 -9 0 -18 -2 -20 -5z"/>
<path d="M5240 4490 c0 -49 4 -90 9 -90 5 0 10 41 10 90 1 54 -3 90 -9 90 -6
0 -10 -37 -10 -90z"/>
<path d="M5546 4524 c-9 -23 -8 -25 12 -22 12 2 16 -3 15 -19 -3 -28 13 -31
21 -5 4 11 18 25 31 32 14 7 25 17 25 22 0 12 -34 10 -48 -4 -9 -9 -12 -9 -12
0 0 18 -37 15 -44 -4z"/>
<path d="M396 4514 c-4 -11 0 -15 16 -12 12 2 23 9 26 16 6 18 -35 15 -42 -4z"/>
<path d="M12 4479 c1 -35 3 -39 13 -25 7 8 15 13 18 9 4 -3 7 -1 7 5 0 7 7 12
15 12 10 0 15 -10 15 -34 0 -19 3 -37 8 -39 4 -3 5 21 4 54 l-4 59 -39 0 -39
0 2 -41z"/>
<path d="M5620 4486 c0 -7 7 -19 15 -26 13 -11 15 -8 15 14 0 16 -5 26 -15 26
-8 0 -15 -6 -15 -14z"/>
<path d="M1242 4460 c0 -19 2 -27 5 -17 2 9 2 25 0 35 -3 9 -5 1 -5 -18z"/>
<path d="M220 4443 c0 -15 -2 -16 -10 -3 -8 12 -10 9 -10 -12 0 -14 -6 -29
-12 -31 -8 -3 -6 -6 5 -6 9 -1 17 4 17 10 0 8 4 8 13 1 10 -9 12 -4 9 23 -4
37 -12 47 -12 18z"/>
<path d="M2997 4410 c-10 -27 -22 -50 -27 -50 -6 0 -10 -9 -10 -20 0 -34 26
-22 38 18 14 50 24 102 20 102 -2 0 -11 -22 -21 -50z"/>
<path d="M5870 4436 c0 -13 -3 -31 -6 -39 -4 -12 0 -14 14 -10 12 3 22 -1 25
-10 6 -17 -13 -67 -26 -67 -4 0 -2 -6 5 -14 25 -27 38 2 38 85 0 78 0 79 -25
79 -20 0 -25 -5 -25 -24z"/>
<path d="M166 4435 c4 -10 1 -14 -7 -12 -8 2 -11 2 -6 0 4 -3 7 -13 7 -24 0
-15 -7 -19 -34 -19 -19 0 -42 -3 -51 -6 -11 -5 -18 0 -22 15 -6 24 -23 29 -23
6 0 -8 -4 -15 -10 -15 -5 0 -7 7 -4 15 4 8 1 15 -5 15 -7 0 -11 -21 -11 -55
l0 -55 38 -1 c20 0 57 -2 82 -5 24 -2 51 -1 60 3 9 4 -4 9 -35 12 -34 4 -50
11 -50 20 0 8 6 16 13 19 6 2 12 -4 12 -13 0 -11 4 -13 13 -8 6 4 42 8 78 9
68 0 101 10 79 24 -6 4 -25 6 -41 4 -42 -5 -77 20 -72 50 3 13 0 27 -6 30 -7
5 -9 1 -5 -9z m-116 -115 c0 -5 -8 -10 -17 -10 -15 0 -16 2 -3 10 19 12 20 12
20 0z"/>
<path d="M1533 4415 c0 -22 2 -30 4 -17 2 12 2 30 0 40 -3 9 -5 -1 -4 -23z"/>
<path d="M2111 4420 c-2 -32 -3 -34 -16 -16 -7 10 -19 15 -25 11 -7 -4 -8 -10
-4 -14 19 -13 63 -79 57 -85 -3 -3 1 -8 10 -12 9 -3 19 -19 22 -35 6 -28 22
-46 31 -36 3 3 1 13 -4 24 -21 38 -56 129 -63 163 l-7 35 -1 -35z"/>
<path d="M5569 4441 c-18 -7 -21 -62 -5 -73 7 -5 8 -11 1 -15 -5 -5 -11 -21
-13 -38 -2 -16 -8 -31 -13 -33 -15 -6 -10 -22 6 -22 16 0 21 -45 6 -54 -5 -4
-12 -23 -16 -45 -6 -34 -11 -40 -48 -52 -55 -18 -73 -35 -57 -54 7 -8 19 -14
28 -13 10 1 28 0 41 0 22 -2 23 -3 8 -26 -9 -13 -13 -27 -9 -31 4 -3 7 -14 7
-23 0 -15 16 -17 123 -20 79 -2 122 1 122 8 0 5 -5 10 -11 10 -5 0 -7 5 -3 11
4 8 9 7 15 -2 5 -8 9 -11 9 -7 0 4 14 3 30 -2 19 -5 30 -5 30 1 0 5 6 9 13 8
35 -4 87 2 87 12 0 6 -30 9 -82 8 -70 -2 -83 0 -86 14 -3 12 4 17 23 17 29 0
45 28 65 116 6 27 15 56 19 64 9 18 1 107 -8 92 -9 -15 -62 -1 -72 19 -4 7
-10 22 -13 32 -3 9 -14 17 -26 17 -28 0 -70 39 -63 58 5 12 1 14 -20 8 -15 -3
-27 -2 -27 3 0 11 -42 19 -61 12z m156 -102 c11 -16 1 -19 -13 -3 -7 8 -8 14
-3 14 5 0 13 -5 16 -11z m32 -11 c-3 -8 -6 -5 -6 6 -1 11 2 17 5 13 3 -3 4
-12 1 -19z m-167 -93 c0 -19 -4 -35 -10 -35 -11 0 -14 53 -3 63 11 12 13 8 13
-28z m-20 -77 c0 -18 -2 -20 -9 -8 -6 8 -7 18 -5 22 9 14 14 9 14 -14z m-10
-45 c0 -5 -5 -15 -10 -23 -8 -12 -10 -11 -10 8 0 12 5 22 10 22 6 0 10 -3 10
-7z m0 -139 c0 -2 -9 -4 -20 -4 -11 0 -20 4 -20 9 0 5 9 7 20 4 11 -3 20 -7
20 -9z m78 5 c29 0 33 -2 17 -8 -11 -5 -31 -7 -45 -5 -14 1 -28 3 -32 3 -5 1
-8 6 -8 12 0 6 7 8 16 5 9 -3 32 -6 52 -7z m77 -9 c-3 -5 -10 -10 -16 -10 -5
0 -9 5 -9 10 0 6 7 10 16 10 8 0 12 -4 9 -10z"/>
<path d="M500 4420 c0 -19 3 -21 12 -12 9 9 9 15 0 24 -9 9 -12 7 -12 -12z"/>
<path d="M2162 4398 c15 -62 27 -68 14 -8 -5 27 -13 50 -17 50 -4 0 -2 -19 3
-42z"/>
<path d="M261 4414 c0 -11 3 -14 6 -6 3 7 2 16 -1 19 -3 4 -6 -2 -5 -13z"/>
<path d="M1311 4366 c-1 -46 2 -67 9 -60 6 6 7 31 1 69 l-9 60 -1 -69z"/>
<path d="M1601 4378 c-1 -39 -6 -60 -16 -65 -12 -7 -12 -17 2 -76 14 -57 14
-71 3 -92 -7 -14 -10 -28 -7 -32 4 -3 7 -1 7 6 0 7 5 9 11 6 6 -4 8 -13 5 -21
-3 -8 0 -11 9 -8 8 4 15 -3 18 -18 3 -13 3 33 0 102 -3 105 -14 198 -28 245
-2 6 -4 -16 -4 -47z"/>
<path d="M1240 4410 c0 -8 5 -22 10 -30 9 -13 10 -13 10 0 0 8 -5 22 -10 30
-9 13 -10 13 -10 0z"/>
<path d="M4158 4413 c6 -2 18 -2 25 0 6 3 1 5 -13 5 -14 0 -19 -2 -12 -5z"/>
<path d="M4218 4413 c7 -3 16 -2 19 1 4 3 -2 6 -13 5 -11 0 -14 -3 -6 -6z"/>
<path d="M4285 4410 c3 -5 8 -10 11 -10 2 0 4 5 4 10 0 6 -5 10 -11 10 -5 0
-7 -4 -4 -10z"/>
<path d="M2746 4392 c-3 -5 1 -15 9 -22 8 -7 15 -20 16 -29 0 -9 3 -11 5 -5 6
15 -22 68 -30 56z"/>
<path d="M3665 4390 l-90 -6 87 -2 c49 -1 89 2 93 8 3 6 5 9 3 8 -2 -1 -43 -5
-93 -8z"/>
<path d="M4160 4380 c0 -5 5 -10 10 -10 6 0 10 5 10 10 0 6 -4 10 -10 10 -5 0
-10 -4 -10 -10z"/>
<path d="M1282 4360 c0 -14 2 -19 5 -12 2 6 2 18 0 25 -3 6 -5 1 -5 -13z"/>
<path d="M3750 4355 c-14 -16 -10 -18 14 -9 9 3 16 10 16 15 0 14 -16 11 -30
-6z"/>
<path d="M3858 4363 c12 -2 30 -2 40 0 9 3 -1 5 -23 4 -22 0 -30 -2 -17 -4z"/>
<path d="M4980 4360 c0 -6 -11 -28 -25 -50 -27 -42 -34 -67 -10 -36 12 16 17
17 30 6 8 -7 15 -21 15 -31 0 -24 17 -25 23 -1 15 52 16 72 7 72 -5 0 -10 5
-10 11 0 23 28 -11 36 -44 l8 -32 4 34 c2 24 -1 37 -12 43 -8 5 -13 15 -10 23
4 10 0 15 -11 15 -10 0 -14 -5 -9 -12 6 -10 4 -10 -7 0 -16 15 -29 16 -29 2z
m6 -67 c-10 -10 -19 5 -10 18 6 11 8 11 12 0 2 -7 1 -15 -2 -18z"/>
<path d="M5880 4359 c0 -5 5 -7 10 -4 6 3 10 8 10 11 0 2 -4 4 -10 4 -5 0 -10
-5 -10 -11z"/>
<path d="M3665 4350 l-40 -7 43 -2 c23 0 42 4 42 9 0 6 -1 9 -2 9 -2 -1 -21
-5 -43 -9z"/>
<path d="M450 4340 c20 -13 50 -13 50 0 0 6 -15 10 -32 10 -25 0 -29 -3 -18
-10z"/>
<path d="M2038 4345 c-5 -5 49 -105 58 -105 1 0 -3 16 -9 35 -6 19 -13 33 -16
30 -2 -3 -10 6 -15 21 -6 14 -14 23 -18 19z"/>
<path d="M5076 4309 c4 -25 0 -48 -15 -77 -17 -33 -18 -40 -6 -36 9 4 20 15
25 25 13 23 13 89 0 109 -6 10 -8 4 -4 -21z"/>
<path d="M1507 4323 c-3 -5 -1 -37 3 -73 l7 -65 2 73 c1 68 -2 82 -12 65z"/>
<path d="M2188 4324 c-4 -3 0 -21 8 -39 8 -19 14 -44 14 -57 0 -16 3 -19 11
-11 8 8 6 25 -8 62 -11 29 -22 49 -25 45z"/>
<path d="M1364 4246 c3 -43 6 -92 6 -108 0 -19 4 -27 11 -22 14 8 2 184 -13
199 -7 7 -9 -15 -4 -69z"/>
<path d="M1973 4292 c19 -20 25 -34 21 -47 -6 -14 -4 -17 9 -12 11 4 23 -3 37
-20 30 -38 37 -20 13 31 -14 28 -34 50 -54 60 -47 24 -56 20 -26 -12z"/>
<path d="M4790 4305 c0 -12 7 -15 25 -13 14 2 26 8 26 13 0 6 -12 11 -26 13
-18 2 -25 -1 -25 -13z"/>
<path d="M4918 4309 c-10 -5 -18 -20 -18 -32 -1 -20 -2 -21 -14 -4 -11 14 -15
15 -25 4 -13 -17 -5 -27 22 -27 10 0 21 9 24 20 3 11 9 20 13 20 4 0 10 7 14
15 6 17 6 17 -16 4z"/>
<path d="M230 4300 c0 -6 13 -9 29 -8 16 1 27 6 25 10 -7 12 -54 10 -54 -2z"/>
<path d="M4018 4283 c12 -2 30 -2 40 0 9 3 -1 5 -23 4 -22 0 -30 -2 -17 -4z"/>
<path d="M1321 4264 c0 -11 3 -14 6 -6 3 7 2 16 -1 19 -3 4 -6 -2 -5 -13z"/>
<path d="M2981 4245 c1 -22 5 -51 9 -65 6 -20 8 -15 9 25 0 28 -4 57 -9 65 -7
11 -9 4 -9 -25z"/>
<path d="M3738 4273 c23 -2 59 -2 80 0 20 2 1 4 -43 4 -44 0 -61 -2 -37 -4z"/>
<path d="M5312 4260 c0 -14 2 -19 5 -12 2 6 2 18 0 25 -3 6 -5 1 -5 -13z"/>
<path d="M3545 4260 c3 -5 12 -7 20 -3 21 7 19 13 -6 13 -11 0 -18 -4 -14 -10z"/>
<path d="M3608 4263 c7 -3 16 -2 19 1 4 3 -2 6 -13 5 -11 0 -14 -3 -6 -6z"/>
<path d="M4705 4260 c-3 -5 3 -10 15 -10 12 0 18 5 15 10 -3 6 -10 10 -15 10
-5 0 -12 -4 -15 -10z"/>
<path d="M4961 4254 c0 -11 3 -14 6 -6 3 7 2 16 -1 19 -3 4 -6 -2 -5 -13z"/>
<path d="M5351 4254 c0 -11 3 -14 6 -6 3 7 2 16 -1 19 -3 4 -6 -2 -5 -13z"/>
<path d="M5440 4260 c0 -5 5 -10 10 -10 6 0 10 5 10 10 0 6 -4 10 -10 10 -5 0
-10 -4 -10 -10z"/>
<path d="M4550 4246 c0 -2 16 -20 35 -39 19 -19 35 -31 35 -26 0 5 12 9 28 8
15 0 21 -3 14 -6 -19 -7 -4 -23 23 -23 28 0 75 40 75 64 0 10 -4 15 -8 12 -19
-11 -176 -10 -180 2 -3 11 -22 18 -22 8z"/>
<path d="M1331 4178 c-1 -32 3 -58 8 -58 5 0 6 21 4 48 -7 70 -11 74 -12 10z"/>
<path d="M1480 4169 c0 -37 4 -58 10 -54 6 3 10 31 10 61 0 30 -4 54 -10 54
-6 0 -10 -27 -10 -61z"/>
<path d="M1894 4205 c8 -24 61 -161 72 -190 7 -16 9 -11 12 21 2 35 -4 54 -39
110 -46 76 -56 89 -45 59z"/>
<path d="M3012 4142 c-14 -92 -15 -125 -3 -118 17 11 37 196 22 196 -4 0 -12
-35 -19 -78z"/>
<path d="M4005 4164 c10 -77 15 -81 15 -11 0 31 -5 59 -11 63 -7 4 -9 -11 -4
-52z"/>
<path d="M1260 4162 c0 -29 4 -52 9 -52 8 0 3 90 -5 99 -2 2 -4 -19 -4 -47z"/>
<path d="M4831 4180 c-19 -16 -41 -31 -50 -33 -9 -2 -1 -2 18 0 36 5 53 17 64
46 8 22 9 22 -32 -13z"/>
<path d="M2851 4184 c0 -11 3 -14 6 -6 3 7 2 16 -1 19 -3 4 -6 -2 -5 -13z"/>
<path d="M16 4171 c-3 -5 1 -11 9 -15 8 -3 15 -1 15 4 0 13 -18 22 -24 11z"/>
<path d="M205 4160 c-18 -8 -17 -9 8 -9 16 -1 26 3 22 9 -3 6 -7 10 -8 9 -1 0
-11 -4 -22 -9z"/>
<path d="M2921 4141 c-1 -44 19 -101 36 -101 7 0 13 -7 13 -15 0 -8 4 -15 10
-15 11 0 1 32 -14 42 -6 4 -18 33 -27 65 -16 52 -17 54 -18 24z"/>
<path d="M4983 4153 c4 -16 0 -23 -10 -23 -8 0 -11 -5 -7 -12 4 -6 -1 -17 -12
-25 -10 -8 -18 -16 -16 -18 1 -3 2 -11 2 -17 0 -9 -3 -8 -9 1 -8 12 -11 9 -16
-12 -4 -15 -11 -27 -16 -27 -5 0 -9 -5 -9 -11 0 -25 46 -2 62 31 9 19 21 40
26 45 16 19 22 60 11 75 -9 12 -10 10 -6 -7z"/>
<path d="M4852 4120 c0 -14 2 -19 5 -12 2 6 2 18 0 25 -3 6 -5 1 -5 -13z"/>
<path d="M2350 4119 c0 -5 5 -7 10 -4 6 3 10 8 10 11 0 2 -4 4 -10 4 -5 0 -10
-5 -10 -11z"/>
<path d="M430 4082 c0 -37 1 -38 30 -34 16 2 27 9 24 14 -3 5 -12 7 -20 4 -10
-4 -14 3 -14 24 0 17 -4 30 -10 30 -5 0 -10 -17 -10 -38z"/>
<path d="M520 4110 c0 -5 4 -10 9 -10 6 0 13 5 16 10 3 6 -1 10 -9 10 -9 0
-16 -4 -16 -10z"/>
<path d="M2231 4094 c0 -11 3 -14 6 -6 3 7 2 16 -1 19 -3 4 -6 -2 -5 -13z"/>
<path d="M1378 4094 c-9 -14 3 -94 13 -94 10 0 10 44 0 80 -4 14 -10 20 -13
14z"/>
<path d="M1482 4055 c2 -27 8 -45 15 -45 16 0 26 17 13 25 -5 3 -10 19 -10 36
0 16 -5 29 -10 29 -6 0 -9 -20 -8 -45z"/>
<path d="M5882 4080 c0 -14 2 -19 5 -12 2 6 2 18 0 25 -3 6 -5 1 -5 -13z"/>
<path d="M200 4077 c0 -9 -4 -17 -10 -17 -5 0 -10 5 -10 10 0 6 -7 10 -16 10
-14 0 -14 -3 -4 -15 7 -8 19 -15 27 -15 15 0 29 27 19 37 -3 4 -6 -1 -6 -10z"/>
<path d="M1235 3980 c4 -63 9 -117 11 -119 9 -9 3 205 -7 219 -7 10 -8 -20 -4
-100z"/>
<path d="M4012 4065 c0 -16 2 -22 5 -12 2 9 2 23 0 30 -3 6 -5 -1 -5 -18z"/>
<path d="M264 4065 c8 -8 17 -15 20 -15 3 0 6 7 6 15 0 9 -9 15 -21 15 -18 0
-19 -2 -5 -15z"/>
<path d="M1270 4047 c0 -20 4 -37 10 -37 5 0 7 14 3 33 -8 45 -13 47 -13 4z"/>
<path d="M45 4060 c-3 -5 1 -10 9 -10 9 0 16 5 16 10 0 6 -4 10 -9 10 -6 0
-13 -4 -16 -10z"/>
<path d="M230 4060 c0 -5 5 -10 11 -10 5 0 7 5 4 10 -3 6 -8 10 -11 10 -2 0
-4 -4 -4 -10z"/>
<path d="M300 4060 c0 -5 15 -10 33 -9 27 0 29 2 12 9 -28 12 -45 12 -45 0z"/>
<path d="M3630 4051 c0 -5 14 -9 30 -9 17 1 30 5 30 10 0 4 -13 8 -30 8 -16 0
-30 -4 -30 -9z"/>
<path d="M4881 4044 c0 -11 3 -14 6 -6 3 7 2 16 -1 19 -3 4 -6 -2 -5 -13z"/>
<path d="M4980 4050 c0 -5 5 -10 10 -10 6 0 10 5 10 10 0 6 -4 10 -10 10 -5 0
-10 -4 -10 -10z"/>
<path d="M1581 4034 c0 -11 3 -14 6 -6 3 7 2 16 -1 19 -3 4 -6 -2 -5 -13z"/>
<path d="M5875 4040 c3 -5 8 -10 11 -10 2 0 4 5 4 10 0 6 -5 10 -11 10 -5 0
-7 -4 -4 -10z"/>
<path d="M50 4030 c0 -5 5 -10 11 -10 5 0 7 5 4 10 -3 6 -8 10 -11 10 -2 0 -4
-4 -4 -10z"/>
<path d="M1630 4013 c0 -23 -7 -37 -25 -49 -30 -20 -26 -31 4 -14 12 6 21 7
21 2 0 -14 -28 -35 -37 -29 -18 11 -7 -49 11 -62 11 -8 14 -16 8 -20 -6 -3
-12 -17 -13 -31 -5 -37 12 -190 20 -190 4 0 13 51 20 113 23 204 24 221 8 267
-16 44 -16 44 -17 13z m-8 -135 c-7 -7 -12 -8 -12 -2 0 14 12 26 19 19 2 -3
-1 -11 -7 -17z m7 -95 c-1 -41 -2 -44 -8 -18 -7 28 -4 65 5 65 2 0 3 -21 3
-47z"/>
<path d="M1340 3944 c0 -21 4 -33 10 -29 6 3 10 19 10 36 0 16 -4 29 -10 29
-5 0 -10 -16 -10 -36z"/>
<path d="M1497 3938 c7 -55 13 -62 13 -15 0 21 0 40 1 44 0 4 -4 9 -9 11 -6 2
-8 -14 -5 -40z"/>
<path d="M1962 3949 c6 -16 13 -28 15 -25 8 8 -6 56 -17 56 -5 0 -5 -13 2 -31z"/>
<path d="M1385 3941 c-4 -7 -2 -18 4 -25 6 -7 8 -16 4 -19 -3 -4 -1 -7 5 -7
14 0 16 29 3 49 -6 9 -10 10 -16 2z"/>
<path d="M4245 3928 c-99 -4 -259 -9 -355 -13 -96 -3 -179 -11 -185 -16 -7 -7
12 -8 55 -5 36 3 166 9 290 12 124 4 241 8 260 9 19 1 92 2 163 3 76 1 127 6
127 12 0 10 -43 10 -355 -2z"/>
<path d="M220 3920 c0 -5 4 -10 9 -10 6 0 13 5 16 10 3 6 -1 10 -9 10 -9 0
-16 -4 -16 -10z"/>
<path d="M1531 3884 c0 -11 3 -14 6 -6 3 7 2 16 -1 19 -3 4 -6 -2 -5 -13z"/>
<path d="M2370 3885 c7 -9 15 -13 17 -11 7 7 -7 26 -19 26 -6 0 -6 -6 2 -15z"/>
<path d="M1399 3855 c-5 -19 -13 -20 -75 -18 -101 5 -106 5 -111 -1 -17 -17
17 -24 94 -20 64 4 88 2 94 -8 7 -10 9 -10 9 0 0 6 9 12 20 12 11 0 20 5 20
10 0 6 -9 10 -19 10 -11 0 -21 8 -23 18 -3 15 -5 14 -9 -3z"/>
<path d="M1580 3850 c0 -5 -22 -10 -50 -10 -27 0 -50 -4 -50 -9 0 -15 29 -21
56 -11 19 7 31 7 40 -1 9 -7 14 -8 14 -1 0 6 3 17 6 26 3 9 1 16 -5 16 -6 0
-11 -4 -11 -10z"/>
<path d="M2493 3813 c-35 -2 -63 -7 -63 -12 0 -10 112 -1 125 10 5 5 7 8 5 7
-3 -1 -33 -3 -67 -5z"/>
<path d="M1358 3783 c6 -2 18 -2 25 0 6 3 1 5 -13 5 -14 0 -19 -2 -12 -5z"/>
<path d="M2520 3755 c-14 -8 -34 -14 -46 -15 -26 0 -61 -25 -47 -33 12 -7 133
44 133 55 0 11 -12 9 -40 -7z"/>
<path d="M2620 3746 c0 -2 8 -10 18 -17 15 -13 16 -12 3 4 -13 16 -21 21 -21
13z"/>
<path d="M2720 3704 c1 -24 53 -66 88 -71 36 -6 36 -5 21 13 -9 10 -19 27 -22
37 -4 10 -17 17 -31 17 -13 0 -31 3 -40 6 -9 3 -16 2 -16 -2z"/>
<path d="M75 3660 c3 -5 8 -10 11 -10 2 0 4 5 4 10 0 6 -5 10 -11 10 -5 0 -7
-4 -4 -10z"/>
<path d="M320 3659 c0 -5 5 -7 10 -4 6 3 10 8 10 11 0 2 -4 4 -10 4 -5 0 -10
-5 -10 -11z"/>
<path d="M2362 3630 c0 -14 2 -19 5 -12 2 6 2 18 0 25 -3 6 -5 1 -5 -13z"/>
<path d="M3012 3595 c0 -16 2 -22 5 -12 2 9 2 23 0 30 -3 6 -5 -1 -5 -18z"/>
<path d="M156 3592 c-4 -7 -5 -16 -2 -19 3 -3 1 -12 -6 -20 -13 -16 -2 -31 13
-16 6 6 9 23 7 39 -2 20 -6 25 -12 16z"/>
<path d="M2296 3535 c4 -8 10 -12 15 -9 11 6 2 24 -11 24 -5 0 -7 -7 -4 -15z"/>
<path d="M4290 3500 c0 -5 5 -10 11 -10 5 0 7 5 4 10 -3 6 -8 10 -11 10 -2 0
-4 -4 -4 -10z"/>
<path d="M742 3461 c2 -7 7 -12 11 -12 12 1 9 15 -3 20 -7 2 -11 -2 -8 -8z"/>
<path d="M928 3383 c7 -3 16 -2 19 1 4 3 -2 6 -13 5 -11 0 -14 -3 -6 -6z"/>
<path d="M2730 3320 c0 -13 20 -13 40 0 12 8 9 10 -12 10 -16 0 -28 -4 -28
-10z"/>
<path d="M2724 3280 c-41 -16 -37 -30 8 -30 l43 -1 -30 -16 c-24 -14 -27 -18
-12 -21 26 -5 47 16 47 49 0 31 -15 36 -56 19z"/>
<path d="M2576 3192 c-3 -5 1 -15 9 -22 16 -14 20 -3 6 19 -5 8 -11 9 -15 3z"/>
<path d="M3022 3005 c0 -16 2 -22 5 -12 2 9 2 23 0 30 -3 6 -5 -1 -5 -18z"/>
<path d="M3250 2845 c0 -8 4 -15 10 -15 5 0 7 7 4 15 -4 8 -8 15 -10 15 -2 0
-4 -7 -4 -15z"/>
<path d="M2321 764 c0 -11 3 -14 6 -6 3 7 2 16 -1 19 -3 4 -6 -2 -5 -13z"/>
<path d="M2070 456 c0 -42 18 -76 40 -76 21 0 27 19 11 36 -5 5 -11 20 -13 34
-4 35 -38 40 -38 6z"/>
<path d="M2286 391 c-10 -11 -16 -26 -14 -33 3 -8 11 -2 23 15 21 33 15 45 -9
18z"/>
<path d="M4560 399 c0 -5 5 -7 10 -4 6 3 10 8 10 11 0 2 -4 4 -10 4 -5 0 -10
-5 -10 -11z"/>
<path d="M2030 381 c0 -5 5 -13 10 -16 6 -3 10 -2 10 4 0 5 -4 13 -10 16 -5 3
-10 2 -10 -4z"/>
<path d="M2190 370 c0 -5 5 -10 10 -10 6 0 10 5 10 10 0 6 -4 10 -10 10 -5 0
-10 -4 -10 -10z"/>
<path d="M2160 366 c0 -2 8 -10 18 -17 15 -13 16 -12 3 4 -13 16 -21 21 -21
13z"/>
<path d="M2107 348 c-15 -5 -25 -13 -22 -18 7 -12 43 0 49 16 3 8 4 14 3 13
-1 0 -14 -5 -30 -11z"/>
<path d="M2185 320 c-8 -13 15 -24 27 -12 6 6 4 11 -6 15 -8 3 -18 2 -21 -3z"/>
<path d="M2056 311 c-4 -7 -5 -15 -2 -18 9 -9 19 4 14 18 -4 11 -6 11 -12 0z"/>
<path d="M2186 283 c-11 -11 -6 -21 14 -26 12 -3 20 0 20 8 0 14 -25 27 -34
18z"/>
<path d="M2050 260 c0 -5 5 -10 10 -10 6 0 10 5 10 10 0 6 -4 10 -10 10 -5 0
-10 -4 -10 -10z"/>
<path d="M2260 151 c0 -62 -5 -121 -10 -132 -6 -11 -7 -19 -1 -19 5 0 12 12
16 27 7 31 8 224 0 231 -3 3 -5 -45 -5 -107z"/>
<path d="M2168 243 c7 -3 16 -2 19 1 4 3 -2 6 -13 5 -11 0 -14 -3 -6 -6z"/>
<path d="M2055 231 c-3 -5 -1 -12 5 -16 5 -3 10 1 10 9 0 18 -6 21 -15 7z"/>
<path d="M2153 213 c-7 -2 -13 -9 -13 -14 0 -14 26 -10 40 6 10 12 10 15 -1
14 -8 0 -20 -3 -26 -6z"/>
<path d="M1430 200 c0 -5 5 -10 11 -10 5 0 7 5 4 10 -3 6 -8 10 -11 10 -2 0
-4 -4 -4 -10z"/>
<path d="M2230 139 c0 -93 -21 -117 -109 -126 -69 -6 -62 -13 12 -13 47 0 67
4 67 13 0 9 3 8 9 -2 7 -11 10 -11 17 0 10 16 19 189 10 189 -3 0 -6 -27 -6
-61z"/>
<path d="M1347 173 c-13 -13 -7 -21 13 -16 11 3 20 9 20 14 0 10 -24 12 -33 2z"/>
<path d="M1401 154 c0 -11 3 -14 6 -6 3 7 2 16 -1 19 -3 4 -6 -2 -5 -13z"/>
<path d="M1330 110 c0 -5 5 -10 10 -10 6 0 10 5 10 10 0 6 -4 10 -10 10 -5 0
-10 -4 -10 -10z"/>
<path d="M1460 110 c0 -5 5 -10 10 -10 6 0 10 5 10 10 0 6 -4 10 -10 10 -5 0
-10 -4 -10 -10z"/>
<path d="M1557 113 c-4 -3 -7 -16 -6 -27 0 -19 1 -19 10 3 10 24 8 36 -4 24z"/>
<path d="M1498 103 c7 -3 16 -2 19 1 4 3 -2 6 -13 5 -11 0 -14 -3 -6 -6z"/>
<path d="M1390 81 c0 -5 5 -13 10 -16 6 -3 10 -2 10 4 0 5 -4 13 -10 16 -5 3
-10 2 -10 -4z"/>
<path d="M1314 63 c-3 -10 -10 -28 -15 -40 -8 -22 -6 -23 36 -23 40 0 45 2 45
23 -1 28 -22 57 -44 57 -9 0 -19 -8 -22 -17z m46 -29 c0 -8 -4 -14 -10 -14 -5
0 -10 9 -10 21 0 11 5 17 10 14 6 -3 10 -13 10 -21z"/>
<path d="M5690 50 c0 -5 5 -10 11 -10 5 0 7 5 4 10 -3 6 -8 10 -11 10 -2 0 -4
-4 -4 -10z"/>
<path d="M1710 35 c-15 -18 -37 -20 -43 -2 -2 6 -8 9 -12 5 -14 -13 17 -38 46
-38 24 0 29 4 29 25 0 29 -3 31 -20 10z"/>
<path d="M1395 30 c-3 -5 3 -14 14 -20 26 -13 35 2 11 18 -11 7 -21 8 -25 2z"/>
<path d="M1966 15 c4 -8 16 -15 27 -15 20 0 20 0 1 15 -25 19 -35 19 -28 0z"/>
</g>
</svg>
